<svg class="floorplan"
	xmlns="http://www.w3.org/2000/svg"
	xmlns:xlink="http://www.w3.org/1999/xlink"
	viewBox="0 0 593.97 771.29"
	preserveAspectRatio="xMinYMin meet">
	<defs>
		<pattern id="_10_lpp_10_" data-name="10 lpp 10%" x="-32.85" y="-26.15" width="72" height="72" patternUnits="userSpaceOnUse" viewBox="0 0 72 72">
			<line x1="71.75" y1="68.4" x2="144.25" y2="68.4" style="fill:none;stroke:currentColor;stroke-width:0.72px"/>
			<line x1="71.75" y1="54" x2="144.25" y2="54" style="fill:none;stroke:currentColor;stroke-width:0.72px"/>
			<line x1="71.75" y1="39.6" x2="144.25" y2="39.6" style="fill:none;stroke:currentColor;stroke-width:0.72px"/>
			<line x1="71.75" y1="25.2" x2="144.25" y2="25.2" style="fill:none;stroke:currentColor;stroke-width:0.72px"/>
			<line x1="71.75" y1="10.8" x2="144.25" y2="10.8" style="fill:none;stroke:currentColor;stroke-width:0.72px"/>
			<line x1="71.75" y1="61.2" x2="144.25" y2="61.2" style="fill:none;stroke:currentColor;stroke-width:0.72px"/>
			<line x1="71.75" y1="46.8" x2="144.25" y2="46.8" style="fill:none;stroke:currentColor;stroke-width:0.72px"/>
			<line x1="71.75" y1="32.4" x2="144.25" y2="32.4" style="fill:none;stroke:currentColor;stroke-width:0.72px"/>
			<line x1="71.75" y1="18" x2="144.25" y2="18" style="fill:none;stroke:currentColor;stroke-width:0.72px"/>
			<line x1="71.75" y1="3.6" x2="144.25" y2="3.6" style="fill:none;stroke:currentColor;stroke-width:0.72px"/>
			<line x1="-0.25" y1="68.4" x2="72.25" y2="68.4" style="fill:none;stroke:currentColor;stroke-width:0.72px"/>
			<line x1="-0.25" y1="54" x2="72.25" y2="54" style="fill:none;stroke:currentColor;stroke-width:0.72px"/>
			<line x1="-0.25" y1="39.6" x2="72.25" y2="39.6" style="fill:none;stroke:currentColor;stroke-width:0.72px"/>
			<line x1="-0.25" y1="25.2" x2="72.25" y2="25.2" style="fill:none;stroke:currentColor;stroke-width:0.72px"/>
			<line x1="-0.25" y1="10.8" x2="72.25" y2="10.8" style="fill:none;stroke:currentColor;stroke-width:0.72px"/>
			<line x1="-0.25" y1="61.2" x2="72.25" y2="61.2" style="fill:none;stroke:currentColor;stroke-width:0.72px"/>
			<line x1="-0.25" y1="46.8" x2="72.25" y2="46.8" style="fill:none;stroke:currentColor;stroke-width:0.72px"/>
			<line x1="-0.25" y1="32.4" x2="72.25" y2="32.4" style="fill:none;stroke:currentColor;stroke-width:0.72px"/>
			<line x1="-0.25" y1="18" x2="72.25" y2="18" style="fill:none;stroke:currentColor;stroke-width:0.72px"/>
			<line x1="-0.25" y1="3.6" x2="72.25" y2="3.6" style="fill:none;stroke:currentColor;stroke-width:0.72px"/>
			<line x1="-72.25" y1="68.4" x2="0.25" y2="68.4" style="fill:none;stroke:currentColor;stroke-width:0.72px"/>
			<line x1="-72.25" y1="54" x2="0.25" y2="54" style="fill:none;stroke:currentColor;stroke-width:0.72px"/>
			<line x1="-72.25" y1="39.6" x2="0.25" y2="39.6" style="fill:none;stroke:currentColor;stroke-width:0.72px"/>
			<line x1="-72.25" y1="25.2" x2="0.25" y2="25.2" style="fill:none;stroke:currentColor;stroke-width:0.72px"/>
			<line x1="-72.25" y1="10.8" x2="0.25" y2="10.8" style="fill:none;stroke:currentColor;stroke-width:0.72px"/>
			<line x1="-72.25" y1="61.2" x2="0.25" y2="61.2" style="fill:none;stroke:currentColor;stroke-width:0.72px"/>
			<line x1="-72.25" y1="46.8" x2="0.25" y2="46.8" style="fill:none;stroke:currentColor;stroke-width:0.72px"/>
			<line x1="-72.25" y1="32.4" x2="0.25" y2="32.4" style="fill:none;stroke:currentColor;stroke-width:0.72px"/>
			<line x1="-72.25" y1="18" x2="0.25" y2="18" style="fill:none;stroke:currentColor;stroke-width:0.72px"/>
			<line x1="-72.25" y1="3.6" x2="0.25" y2="3.6" style="fill:none;stroke:currentColor;stroke-width:0.72px"/>
		</pattern>
	</defs>
	<title>floorplan</title>
	<g class="elevator" data-animate="fade-down" data-delay-in="600">
		<g class="line_over">
			<line x1="188.94" y1="300.69" x2="188.94" y2="301.19" style="fill:none;stroke:currentColor;stroke-linecap:round;stroke-linejoin:round;stroke-width:0.5px"/>
			<line x1="188.93" y1="303.19" x2="187.78" y2="554.58" style="fill:none;stroke:currentColor;stroke-linecap:round;stroke-linejoin:round;stroke-width:0.5px;stroke-dasharray:1.0015277862548828,2.0030555725097656"/>
			<line x1="187.78" y1="555.58" x2="187.78" y2="556.08" style="fill:none;stroke:currentColor;stroke-linecap:round;stroke-linejoin:round;stroke-width:0.5px"/>
		</g>
		<g class="line_over-2" data-name="line_over">
			<line x1="260.57" y1="341.83" x2="260.57" y2="342.33" style="fill:none;stroke:currentColor;stroke-linecap:round;stroke-linejoin:round;stroke-width:0.5px"/>
			<line x1="260.57" y1="344.32" x2="260.57" y2="554.87" style="fill:none;stroke:currentColor;stroke-linecap:round;stroke-linejoin:round;stroke-width:0.5px;stroke-dasharray:0.993172287940979,1.986344575881958"/>
			<line x1="260.57" y1="555.86" x2="260.57" y2="556.36" style="fill:none;stroke:currentColor;stroke-linecap:round;stroke-linejoin:round;stroke-width:0.5px"/>
		</g>
		<g class="line_over-3" data-name="line_over">
			<line x1="225.39" y1="320.77" x2="225.39" y2="321.27" style="fill:none;stroke:currentColor;stroke-linecap:round;stroke-linejoin:round;stroke-width:0.5px"/>
			<line x1="225.39" y1="323.26" x2="225.39" y2="575.86" style="fill:none;stroke:currentColor;stroke-linecap:round;stroke-linejoin:round;stroke-width:0.5px;stroke-dasharray:0.9944908022880554,1.9889816045761108"/>
			<line x1="225.39" y1="576.85" x2="225.39" y2="577.35" style="fill:none;stroke:currentColor;stroke-linecap:round;stroke-linejoin:round;stroke-width:0.5px"/>
		</g>
		<g class="line_under" style="opacity:0.15">
			<line x1="188.93" y1="214.01" x2="188.93" y2="214.51" style="fill:none;stroke:currentColor;stroke-linecap:round;stroke-linejoin:round;stroke-width:0.5px"/>
			<line x1="188.93" y1="216.54" x2="188.93" y2="297.64" style="fill:none;stroke:currentColor;stroke-linecap:round;stroke-linejoin:round;stroke-width:0.5px;stroke-dasharray:1.0137803554534912,2.0275607109069824"/>
			<line x1="188.93" y1="298.66" x2="188.93" y2="299.16" style="fill:none;stroke:currentColor;stroke-linecap:round;stroke-linejoin:round;stroke-width:0.5px"/>
		</g>
		<g class="line_under-2" data-name="line_under" style="opacity:0.15">
			<line x1="225.39" y1="193.83" x2="225.39" y2="194.33" style="fill:none;stroke:currentColor;stroke-linecap:round;stroke-linejoin:round;stroke-width:0.5px"/>
			<line x1="225.39" y1="196.34" x2="225.39" y2="319.26" style="fill:none;stroke:currentColor;stroke-linecap:round;stroke-linejoin:round;stroke-width:0.5px;stroke-dasharray:1.0075265169143677,2.0150530338287354"/>
			<line x1="225.39" y1="320.27" x2="225.39" y2="320.77" style="fill:none;stroke:currentColor;stroke-linecap:round;stroke-linejoin:round;stroke-width:0.5px"/>
		</g>
		<g class="line_under-3" data-name="line_under" style="opacity:0.15">
			<line x1="260.41" y1="214.84" x2="260.41" y2="215.34" style="fill:none;stroke:currentColor;stroke-linecap:round;stroke-linejoin:round;stroke-width:0.5px"/>
			<line x1="260.41" y1="217.34" x2="260.41" y2="339.28" style="fill:none;stroke:currentColor;stroke-linecap:round;stroke-linejoin:round;stroke-width:0.5px;stroke-dasharray:0.9995729327201843,1.9991458654403687"/>
			<line x1="260.41" y1="340.28" x2="260.41" y2="340.78" style="fill:none;stroke:currentColor;stroke-linecap:round;stroke-linejoin:round;stroke-width:0.5px"/>
		</g>
		<g class="icon">
			<g class="icon-2" data-name="icon">
				<g class="disabled">
					<rect class="body" x="292.81" y="469.27" width="6.41" height="6.89" rx="1.4" style="fill:none;stroke:currentColor;stroke-miterlimit:10;stroke-width:1.5px"/>
					<path class="head" d="M328.87,493.91a2.52,2.52,0,1,0-2.55-2.52A2.53,2.53,0,0,0,328.87,493.91Zm0-3.36a.84.84,0,1,1-.85.84A.85.85,0,0,1,328.87,490.55Z" transform="translate(-32.85 -26.15)" style="fill:currentColor"/>
					<line class="wheel" x1="290.9" y1="471.24" x2="289.5" y2="479.62" style="fill:none;stroke:currentColor;stroke-linecap:round;stroke-miterlimit:10;stroke-width:1.5px"/>
					<line class="wheel-2" data-name="wheel" x1="301.14" y1="471.24" x2="302.54" y2="479.62" style="fill:none;stroke:currentColor;stroke-linecap:round;stroke-miterlimit:10;stroke-width:1.5px"/>
				</g>
				<rect class="box" x="283.98" y="452.22" width="24.07" height="32.32" rx="2.74" style="fill:none;stroke:currentColor;stroke-miterlimit:10;stroke-width:1.5px"/>
				<polyline class="up" points="294.87 458.72 293.02 456.87 291.17 458.72" style="fill:none;stroke:currentColor;stroke-linecap:round;stroke-linejoin:round"/>
				<polyline class="down" points="297.17 456.87 299.02 458.72 300.87 456.87" style="fill:none;stroke:currentColor;stroke-linecap:round;stroke-linejoin:round"/>
			</g>
			<line class="line" x1="277.75" y1="459.33" x2="237.7" y2="436.48" style="fill:none;stroke:currentColor;stroke-linecap:round;stroke-miterlimit:10"/>
		</g>
	</g>
	<g class="floor_m1" data-animate="fade-down">
		<text transform="translate(0.5 584.38)" style="font-size:25px;fill:currentColor;stroke:currentColor;stroke-miterlimit:10;font-family:Oswald, Abel;letter-spacing:0.05em">P-1</text>
		<path
		class="perimeter"
		d="M522.85,629.56l100.3,57.71a4.08,4.08,0,0,1,0,7.08l-173.4,100a12,12,0,0,1-12,0l-321-185.58a4.61,4.61,0,0,1,0-8L254,521.69a8.7,8.7,0,0,1,8.73,0l212.12,123a12.38,12.38,0,0,0,12.39,0l26.25-15.17A9.35,9.35,0,0,1,522.85,629.56Z"
		transform="translate(-32.85 -26.15)"
		style="fill:none;stroke:currentColor;stroke-linejoin:round;stroke-width:3px"/>
		<polygon class="private" points="593.17 663.95 484.8 600.93 447.14 621.3 336.66 557.53 264.99 599.39 352.99 653.19 280.75 696.27 411.4 770.78 593.17 663.95" style="fill:url(#_10_lpp_10_)"/>
		<path
		class="elevator-2"
		data-name="elevator"
		d="M184.22,562,255,603a6.71,6.71,0,0,0,6.69,0l30.81-17.73a2,2,0,0,0,0-3.43L261.79,564a6.74,6.74,0,0,0-6.73,0l-33.74,19.46"
		transform="translate(-32.85 -26.15)"
		style="fill:none;stroke:currentColor;stroke-miterlimit:10;stroke-width:3px"/>
		<line class="wall" x1="324.68" y1="670.93" x2="280.75" y2="696.27" style="fill:none;stroke:currentColor;stroke-linecap:round;stroke-miterlimit:10;stroke-width:3px"/>
		<path
		class="wall-2"
		data-name="wall"
		d="M369.5,583.68l-69.69,40.15a2.9,2.9,0,0,0,0,5l83.89,48.51a2.69,2.69,0,0,1,0,4.66l-7.81,4.5"
		transform="translate(-32.85 -26.15)"
		style="fill:none;stroke:currentColor;stroke-linecap:round;stroke-miterlimit:10;stroke-width:3px"/>
		<line class="wall-3" data-name="wall" x1="299.45" y1="664.44" x2="317.83" y2="674.95" style="fill:none;stroke:currentColor;stroke-linecap:round;stroke-miterlimit:10;stroke-width:3px"/>
		<line class="wall-4" data-name="wall" x1="253.3" y1="637.62" x2="284.51" y2="655.82" style="fill:none;stroke:currentColor;stroke-linecap:round;stroke-miterlimit:10;stroke-width:3px"/>
		<path class="wall-5" data-name="wall" d="M220.53,668.56l34.65-19.24a6.2,6.2,0,0,1,6.09,0l9.64,5.55" transform="translate(-32.85 -26.15)" style="fill:none;stroke:currentColor;stroke-linecap:round;stroke-miterlimit:10;stroke-width:3px"/>
		<line class="wall-6" data-name="wall" x1="233.98" y1="669.06" x2="270.54" y2="648.05" style="fill:none;stroke:currentColor;stroke-linecap:round;stroke-miterlimit:10;stroke-width:3px"/>
		<line class="wall-7" data-name="wall" x1="336.82" y1="642.88" x2="410.75" y2="600.31" style="fill:none;stroke:currentColor;stroke-linejoin:round;stroke-width:3px"/>
		<g class="stairs">
			<line class="stair" x1="287.01" y1="541.96" x2="261.22" y2="556.85" style="fill:none;stroke:currentColor;stroke-linecap:round;stroke-linejoin:round"/>
			<line class="stair-2" data-name="stair" x1="279.78" y1="537.79" x2="253.99" y2="552.68" style="fill:none;stroke:currentColor;stroke-linecap:round;stroke-linejoin:round"/>
			<line class="stair-3" data-name="stair" x1="272.55" y1="533.62" x2="246.77" y2="548.51" style="fill:none;stroke:currentColor;stroke-linecap:round;stroke-linejoin:round"/>
			<line class="stair-4" data-name="stair" x1="265.33" y1="529.45" x2="239.54" y2="544.34" style="fill:none;stroke:currentColor;stroke-linecap:round;stroke-linejoin:round"/>
			<line class="stair-5" data-name="stair" x1="258.1" y1="525.28" x2="232.31" y2="540.17" style="fill:none;stroke:currentColor;stroke-linecap:round;stroke-linejoin:round"/>
			<line class="stair-6" data-name="stair" x1="250.87" y1="521.11" x2="225.08" y2="536" style="fill:none;stroke:currentColor;stroke-linecap:round;stroke-linejoin:round"/>
		</g>
		<polyline class="arrow_up" points="288.44 554.61 281.06 554.49 281.06 558.75" style="fill:none;stroke:currentColor;stroke-linecap:round;stroke-linejoin:round;stroke-width:2px"/>
		<g class="signaling">
			<g class="toilet">
				<g class="icon-3" data-name="icon">
					<path
					class="body_female"
					d="M250.44,733.37a7.88,7.88,0,0,0-1.3-2.61l.51-1.67a2.42,2.42,0,0,0-.35-2.13,2.38,2.38,0,0,0-1.86-1h-2.39a2.4,2.4,0,0,0-1.86,1,2.45,2.45,0,0,0-.35,2.13l.52,1.67c-1.87,2.35-1.82,6-1.81,6.15a.84.84,0,0,0,.85.82h1.27v3.07a.85.85,0,0,0,1.7,0v-3.91a.85.85,0,0,0-.85-.84h-1.24a7.79,7.79,0,0,1,1.64-4.51.85.85,0,0,0,.2-.83l-.65-2.11a.74.74,0,0,1,.11-.66.68.68,0,0,1,.53-.3h2.27a.72.72,0,0,1,.54.3.77.77,0,0,1,.11.66l-.65,2.11a.84.84,0,0,0,.19.83,5.57,5.57,0,0,1,1.24,2.31,10.23,10.23,0,0,1,.4,2.2H248a.85.85,0,0,0-.84.84v3.91a.85.85,0,0,0,1.69,0v-3.07h1.28a.84.84,0,0,0,.85-.82A12.8,12.8,0,0,0,250.44,733.37Z"
					transform="translate(-32.85 -26.15)"
					style="fill:currentColor"/>
					<path class="head_female" d="M246.22,725.15a2.52,2.52,0,1,0-2.55-2.52A2.53,2.53,0,0,0,246.22,725.15Zm0-3.36a.84.84,0,1,1-.85.84A.85.85,0,0,1,246.22,721.79Z" transform="translate(-32.85 -26.15)" style="fill:currentColor"/>
					<path
					class="body_male"
					d="M236.88,726h-3.4a2.55,2.55,0,0,0-2.55,2.53v4.58a2.52,2.52,0,0,0,1.7,2.38v5.36a.85.85,0,0,0,1.7,0v-6a.85.85,0,0,0-.85-.85.84.84,0,0,1-.85-.84v-4.58a.84.84,0,0,1,.85-.84h3.4a.84.84,0,0,1,.85.84v4.58a.84.84,0,0,1-.85.84.85.85,0,0,0-.85.85v6a.85.85,0,0,0,1.7,0v-5.36a2.52,2.52,0,0,0,1.69-2.38v-4.58A2.54,2.54,0,0,0,236.88,726Z"
					transform="translate(-32.85 -26.15)"
					style="fill:currentColor"/>
					<path class="head_male" d="M235.18,725.15a2.52,2.52,0,1,0-2.55-2.52A2.54,2.54,0,0,0,235.18,725.15Zm0-3.36a.84.84,0,1,1-.85.84A.85.85,0,0,1,235.18,721.79Z" transform="translate(-32.85 -26.15)" style="fill:currentColor"/>
				</g>
				<line class="line-2" data-name="line" x1="264.17" y1="677.55" x2="222.6" y2="701.47" style="fill:none;stroke:currentColor;stroke-linecap:round;stroke-miterlimit:10"/>
			</g>
			<g class="toilet_disabled">
				<g class="icon-4" data-name="icon">
					<g class="male_female">
						<path
						class="body_female-2"
						data-name="body_female"
						d="M203.54,707.78a7.61,7.61,0,0,0-1.31-2.61l.52-1.68a2.43,2.43,0,0,0-2.21-3.13h-2.39a2.43,2.43,0,0,0-2.21,3.13l.51,1.68c-1.87,2.35-1.81,6-1.81,6.14a.85.85,0,0,0,.85.83h1.28v3.07a.85.85,0,0,0,1.69,0V711.3a.84.84,0,0,0-.85-.84h-1.24a7.93,7.93,0,0,1,1.65-4.52.82.82,0,0,0,.19-.82l-.65-2.12a.74.74,0,0,1,.65-1h2.27a.71.71,0,0,1,.53.3.75.75,0,0,1,.11.66l-.65,2.12a.83.83,0,0,0,.2.82,5.68,5.68,0,0,1,1.24,2.32,10.77,10.77,0,0,1,.4,2.2h-1.24a.84.84,0,0,0-.85.84v3.91a.85.85,0,0,0,1.7,0v-3.07h1.27a.85.85,0,0,0,.85-.83A12.92,12.92,0,0,0,203.54,707.78Z"
						transform="translate(-32.85 -26.15)"
						style="fill:currentColor"/>
						<path class="head_female-2" data-name="head_female" d="M199.31,699.56a2.53,2.53,0,1,0-2.54-2.52A2.54,2.54,0,0,0,199.31,699.56Zm0-3.36a.84.84,0,1,1-.85.84A.84.84,0,0,1,199.31,696.2Z" transform="translate(-32.85 -26.15)" style="fill:currentColor"/>
						<path
						class="body_male-2"
						data-name="body_male"
						d="M190,700.36h-3.39a2.54,2.54,0,0,0-2.55,2.52v4.59a2.53,2.53,0,0,0,1.7,2.38v5.36a.85.85,0,0,0,1.7,0v-6.06a.85.85,0,0,0-.85-.84.85.85,0,0,1-.85-.84v-4.59a.85.85,0,0,1,.85-.84H190a.85.85,0,0,1,.85.84v4.59a.85.85,0,0,1-.85.84.85.85,0,0,0-.84.84v6.06a.85.85,0,0,0,1.69,0v-5.36a2.53,2.53,0,0,0,1.7-2.38v-4.59A2.54,2.54,0,0,0,190,700.36Z"
						transform="translate(-32.85 -26.15)"
						style="fill:currentColor"/>
						<path class="head_male-2" data-name="head_male" d="M188.28,699.56a2.53,2.53,0,1,0-2.55-2.52A2.53,2.53,0,0,0,188.28,699.56Zm0-3.36a.84.84,0,1,1-.85.84A.85.85,0,0,1,188.28,696.2Z" transform="translate(-32.85 -26.15)" style="fill:currentColor"/>
					</g>
					<g class="disabled-2" data-name="disabled">
						<rect class="body-2" data-name="body" x="139.51" y="678.8" width="6.41" height="6.89" rx="1.4" style="fill:none;stroke:currentColor;stroke-miterlimit:10;stroke-width:1.5px"/>
						<path class="head-2" data-name="head" d="M175.56,703.44a2.53,2.53,0,1,0-2.55-2.52A2.54,2.54,0,0,0,175.56,703.44Zm0-3.37a.85.85,0,1,1-.85.85A.85.85,0,0,1,175.56,700.07Z" transform="translate(-32.85 -26.15)" style="fill:currentColor"/>
						<line class="wheel-3" data-name="wheel" x1="137.59" y1="680.76" x2="136.19" y2="689.15" style="fill:none;stroke:currentColor;stroke-linecap:round;stroke-miterlimit:10;stroke-width:1.5px"/>
						<line class="wheel-4" data-name="wheel" x1="147.83" y1="680.76" x2="149.23" y2="689.15" style="fill:none;stroke:currentColor;stroke-linecap:round;stroke-miterlimit:10;stroke-width:1.5px"/>
					</g>
				</g>
				<line class="line-3" data-name="line" x1="218.03" y1="651.5" x2="176.46" y2="675.41" style="fill:none;stroke:currentColor;stroke-linecap:round;stroke-miterlimit:10"/>
			</g>
		</g>
	</g>
	<g class="floor_0" data-animate="fade-down" data-delay="150">
		<text transform="translate(0.5 415.44)" style="font-size:25px;fill:currentColor;stroke:currentColor;stroke-miterlimit:10;font-family:Oswald, Abel;letter-spacing:0.05em">P0</text>
		<g class="walls">
			<g class="wall-8" data-name="wall">
				<path
				d="M212,417.52,189,430.83c-2.7,1.55-2.71,4.1,0,5.66l27.36,15.82,9.81,5.68,27.28,15.77a10.89,10.89,0,0,0,9.82,0l64.43-37.13c2.7-1.56,2.71-4.11,0-5.67L263.2,393.7a10.86,10.86,0,0,0-9.82,0l-15.23,8.78"
				transform="translate(-32.85 -26.15)"
				style="fill:none;stroke:currentColor;stroke-linecap:round;stroke-miterlimit:10;stroke-width:3px"/>
			</g>
			<path d="M221.2,455.15l32.19-18.71a10.78,10.78,0,0,1,9.8,0l32.31,18.88" transform="translate(-32.85 -26.15)" style="fill:none;stroke:currentColor;stroke-miterlimit:10;stroke-width:3px"/>
			<g class="stairs-2" data-name="stairs">
				<line x1="290.84" y1="402.92" x2="255.46" y2="423.57" style="fill:none;stroke:currentColor;stroke-linecap:round;stroke-linejoin:round"/>
				<line x1="283.63" y1="398.57" x2="248.04" y2="419.15" style="fill:none;stroke:currentColor;stroke-linecap:round;stroke-linejoin:round"/>
				<line x1="277" y1="394.18" x2="239.91" y2="415.53" style="fill:none;stroke:currentColor;stroke-linecap:round;stroke-linejoin:round"/>
				<line x1="268.81" y1="390.61" x2="233.19" y2="411.05" style="fill:none;stroke:currentColor;stroke-linecap:round;stroke-linejoin:round"/>
				<line x1="261.6" y1="386.37" x2="224.01" y2="407.98" style="fill:none;stroke:currentColor;stroke-linecap:round;stroke-linejoin:round"/>
			</g>
		</g>
		<text transform="matrix(0.75, -0.43, 0.87, 0.5, 159.38, 384.17)" style="font-size:12px;fill:currentColor;stroke:currentColor;stroke-linecap:round;stroke-linejoin:round;font-family:Oswald, Abel;letter-spacing:0.1000067999250081em">ENTRADA</text>
		<g class="arrow_entry">
			<polyline class="pointer" points="198.69 380.21 198.69 386.55 187.49 386.55" style="fill:none;stroke:currentColor;stroke-linecap:round;stroke-linejoin:round;stroke-width:3px"/>
			<line class="line-4" data-name="line" x1="183.03" y1="377.51" x2="198.69" y2="386.55" style="fill:none;stroke:currentColor;stroke-linecap:round;stroke-linejoin:round;stroke-width:3px"/>
		</g>
		<polyline class="arrow_down" points="241.68 384.06 241.71 388.25 234.39 388.22" style="fill:none;stroke:currentColor;stroke-linecap:round;stroke-linejoin:round;stroke-width:2px"/>
		<polyline class="arrow_up-2" data-name="arrow_up" points="235.58 392.7 228.19 392.58 228.19 396.84" style="fill:none;stroke:currentColor;stroke-linecap:round;stroke-linejoin:round;stroke-width:2px"/>
	</g>
	<g class="floor_1" data-animate="fade-down" data-delay="300">
		<text transform="translate(0.5 248.49)" style="font-size:25px;fill:currentColor;stroke:currentColor;stroke-miterlimit:10;font-family:Oswald, Abel;letter-spacing:0.05em">P1</text>
		<path
		class="perimeter-2"
		data-name="perimeter"
		d="M521.83,286.72,623.12,345a4.09,4.09,0,0,1,0,7.09L448.54,452.76a9.65,9.65,0,0,1-9.64,0L323.71,386.24a3.54,3.54,0,0,1,0-6.12l37.44-21.89a2.4,2.4,0,0,0-.05-4.16l-17-9.46a5.22,5.22,0,0,0-5.16,0L299,367.71a7.28,7.28,0,0,1-7.29,0L115.83,266a4,4,0,0,1,0-6.93l138.38-79.74a8.29,8.29,0,0,1,8.29,0L476.65,303.51a8.71,8.71,0,0,0,8.76,0l29.06-16.79A7.36,7.36,0,0,1,521.83,286.72Z"
		transform="translate(-32.85 -26.15)"
		style="fill:none;stroke:currentColor;stroke-linejoin:round;stroke-width:3px"/>
		<line class="wall-9" data-name="wall" x1="188.37" y1="300.67" x2="235.38" y2="273.52" style="fill:none;stroke:currentColor;stroke-linecap:round;stroke-miterlimit:10;stroke-width:3px"/>
		<line class="wall-10" data-name="wall" x1="256.92" y1="260.98" x2="336.74" y2="215.1" style="fill:none;stroke:currentColor;stroke-linecap:round;stroke-miterlimit:10;stroke-width:3px"/>
		<path
		class="column"
		d="M383.68,321.17l9.56,5.54a2.28,2.28,0,0,1,0,4l-8.95,5.19a6.19,6.19,0,0,1-6.19,0l-9.42-5.48a2,2,0,0,1,0-3.43l10-5.76A5,5,0,0,1,383.68,321.17Z"
		transform="translate(-32.85 -26.15)"
		style="fill:none;stroke:currentColor;stroke-miterlimit:10;stroke-width:3px"/>
		<path
		class="projection_wall"
		d="M480,390.71l-58.48-33.86a1.8,1.8,0,0,0-1.81,0l-1.48.88a1.07,1.07,0,0,0,0,1.85l58.17,33.59a1.27,1.27,0,0,0,1.28,0l2.31-1.34A.66.66,0,0,0,480,390.71Z"
		transform="translate(-32.85 -26.15)"
		style="fill:none;stroke:currentColor;stroke-linecap:round;stroke-miterlimit:10;stroke-width:3px"/>
		<path
		class="elevator-3"
		data-name="elevator"
		d="M184.18,219.67l71.18,41.18a6,6,0,0,0,6,0l30.14-17.35a2.67,2.67,0,0,0,0-4.62l-31.18-18a3.79,3.79,0,0,0-3.8,0l-35.2,20.29"
		transform="translate(-32.85 -26.15)"
		style="fill:none;stroke:currentColor;stroke-miterlimit:10;stroke-width:3px"/>
		<polyline class="arrow_up-3" data-name="arrow_up" points="225.83 299.83 225.86 304.02 218.54 303.99" style="fill:none;stroke:currentColor;stroke-linecap:round;stroke-linejoin:round;stroke-width:2px"/>
		<g class="stairs_up">
			<line class="stair-7" data-name="stair" x1="281.33" y1="323.68" x2="255.54" y2="338.57" style="fill:none;stroke:currentColor;stroke-linecap:round;stroke-linejoin:round"/>
			<line class="stair-8" data-name="stair" x1="274.1" y1="319.51" x2="248.31" y2="334.4" style="fill:none;stroke:currentColor;stroke-linecap:round;stroke-linejoin:round"/>
			<line class="stair-9" data-name="stair" x1="266.87" y1="315.34" x2="241.08" y2="330.23" style="fill:none;stroke:currentColor;stroke-linecap:round;stroke-linejoin:round"/>
			<line class="stair-10" data-name="stair" x1="259.65" y1="311.17" x2="233.86" y2="326.06" style="fill:none;stroke:currentColor;stroke-linecap:round;stroke-linejoin:round"/>
			<line class="stair-11" data-name="stair" x1="252.42" y1="307" x2="226.63" y2="321.89" style="fill:none;stroke:currentColor;stroke-linecap:round;stroke-linejoin:round"/>
			<line class="stair-12" data-name="stair" x1="245.19" y1="302.83" x2="219.4" y2="317.72" style="fill:none;stroke:currentColor;stroke-linecap:round;stroke-linejoin:round"/>
		</g>
		<polyline class="arrow_down-2" data-name="arrow_down" points="301.09 207.6 293.7 207.48 293.7 211.74" style="fill:none;stroke:currentColor;stroke-linecap:round;stroke-linejoin:round;stroke-width:2px"/>
		<g class="stairs_down">
			<line class="stair-13" data-name="stair" x1="299.01" y1="193.38" x2="273.22" y2="208.27" style="fill:none;stroke:currentColor;stroke-linecap:round;stroke-linejoin:round"/>
			<line class="stair-14" data-name="stair" x1="291.78" y1="189.21" x2="265.99" y2="204.1" style="fill:none;stroke:currentColor;stroke-linecap:round;stroke-linejoin:round"/>
			<line class="stair-15" data-name="stair" x1="284.55" y1="185.04" x2="258.76" y2="199.93" style="fill:none;stroke:currentColor;stroke-linecap:round;stroke-linejoin:round"/>
			<line class="stair-16" data-name="stair" x1="277.32" y1="180.87" x2="251.53" y2="195.76" style="fill:none;stroke:currentColor;stroke-linecap:round;stroke-linejoin:round"/>
			<line class="stair-17" data-name="stair" x1="270.1" y1="176.7" x2="244.31" y2="191.59" style="fill:none;stroke:currentColor;stroke-linecap:round;stroke-linejoin:round"/>
			<line class="stair-18" data-name="stair" x1="262.87" y1="172.53" x2="237.08" y2="187.42" style="fill:none;stroke:currentColor;stroke-linecap:round;stroke-linejoin:round"/>
		</g>
	</g>
	<g class="floor_2" data-animate="fade-down" data-delay="450">
		<text transform="translate(0.5 85.55)" style="font-size:25px;fill:currentColor;stroke:currentColor;stroke-miterlimit:10;font-family:Oswald, Abel;letter-spacing:0.05em">P2</text>
		<path
		class="perimeter-3"
		data-name="perimeter"
		d="M522.27,71.67l101,58.12a4,4,0,0,1,0,7l-177,102.19a7.69,7.69,0,0,1-5.14-.09L227.85,115.33a4.37,4.37,0,0,1,0-7.56L364.69,29a9.71,9.71,0,0,1,9.71,0L479.27,89.72a5,5,0,0,0,3.66,0l31.23-18A8.1,8.1,0,0,1,522.27,71.67Z"
		transform="translate(-32.85 -26.15)"
		style="fill:none;stroke:currentColor;stroke-linejoin:round;stroke-width:3px"/>
		<path
		class="private-2"
		data-name="private"
		d="M522.44,72l101,58.13a4,4,0,0,1,0,6.95l-177,102.19a7.6,7.6,0,0,1-5.13-.09L314.18,165c-1.31-.76,70.08-39.45,68.75-44.32s-87.67-51.78-87.67-51.78l69.6-39.66a9.71,9.71,0,0,1,9.71,0L479.44,90a5,5,0,0,0,3.66,0L514.34,72A8.09,8.09,0,0,1,522.44,72Z"
		transform="translate(-32.85 -26.15)"
		style="fill:url(#_10_lpp_10_)"/>
		<line class="floor" x1="296.62" y1="95.71" x2="233.56" y2="59.58" style="fill:none;stroke:currentColor;stroke-linecap:round;stroke-miterlimit:10;stroke-width:3px"/>
		<path class="wall-11" data-name="wall" d="M314.18,165l67.36-41a3.23,3.23,0,0,0-.07-5.56L295.26,68.89" transform="translate(-32.85 -26.15)" style="fill:none;stroke:currentColor;stroke-linecap:round;stroke-miterlimit:10;stroke-width:3px"/>
		<g class="stairs-3" data-name="stairs">
			<line class="stair-19" data-name="stair" x1="301.65" y1="98.72" x2="324.64" y2="112.14" style="fill:none;stroke:currentColor;stroke-linecap:round;stroke-linejoin:round"/>
			<line class="stair-20" data-name="stair" x1="295.44" y1="102.44" x2="318.44" y2="115.86" style="fill:none;stroke:currentColor;stroke-linecap:round;stroke-linejoin:round"/>
			<line class="stair-21" data-name="stair" x1="289.24" y1="106.17" x2="312.24" y2="119.58" style="fill:none;stroke:currentColor;stroke-linecap:round;stroke-linejoin:round"/>
			<line class="stair-22" data-name="stair" x1="283.04" y1="109.89" x2="306.03" y2="123.3" style="fill:none;stroke:currentColor;stroke-linecap:round;stroke-linejoin:round"/>
			<line class="stair-23" data-name="stair" x1="276.83" y1="113.61" x2="299.83" y2="127.03" style="fill:none;stroke:currentColor;stroke-linecap:round;stroke-linejoin:round"/>
		</g>
		<polyline class="arrow" points="317.08 93.21 317.08 97.29 324.25 97.29" style="fill:none;stroke:currentColor;stroke-linecap:round;stroke-linejoin:round;stroke-width:2px"/>
	</g>
</svg>
