<svg height="512" viewBox="0 0 128 128" width="512" xmlns="http://www.w3.org/2000/svg"><g><path d="m73.21 70.909a1.739 1.739 0 0 0 .822-.206l7.136-3.8a1.75 1.75 0 0 0 -1.647-3.089l-7.136 3.8a1.75 1.75 0 0 0 .825 3.3z"/><path d="m70.931 26.728a1.749 1.749 0 0 0 -2.475 0l-7.185 7.185a1.751 1.751 0 0 0 -.39.6l-12.581 23.565-39.067 39.055a15.3 15.3 0 1 0 21.634 21.634l39.107-39.107 22.082-11.76 1.436-.78a1.74 1.74 0 0 0 .595-.388l7.185-7.185a1.749 1.749 0 0 0 0-2.475zm-5.948 8.423 4.707-4.706 27.865 27.865-2.122 2.123-2.584 2.584zm-2.042 2.907 26.991 26.991-20.711 11.051-17.321-17.33zm-34.549 78.234a11.8 11.8 0 1 1 -16.684-16.684l38.042-38.033 16.68 16.68z"/><path d="m113.612 14.388a1.748 1.748 0 0 0 -2.474 0l-10.949 10.948a1.75 1.75 0 1 0 2.475 2.475l10.948-10.949a1.748 1.748 0 0 0 0-2.474z"/><path d="m106.462 39.815 13.582-4.715a1.75 1.75 0 0 0 -1.144-3.31l-13.583 4.718a1.75 1.75 0 1 0 1.149 3.307z"/><path d="m121.7 49.648-14.281-1.673a1.75 1.75 0 1 0 -.407 3.477l14.28 1.673a1.8 1.8 0 0 0 .206.012 1.751 1.751 0 0 0 .2-3.489z"/><path d="m89.264 23.766a1.75 1.75 0 0 0 2.228-1.079l4.718-13.587a1.75 1.75 0 0 0 -3.31-1.144l-4.715 13.582a1.751 1.751 0 0 0 1.079 2.228z"/><path d="m76.548 20.984a1.751 1.751 0 0 0 1.736 1.546 2.031 2.031 0 0 0 .206-.011 1.751 1.751 0 0 0 1.535-1.942l-1.673-14.277a1.75 1.75 0 0 0 -3.477.408z"/><path d="m47.729 80.271a4.757 4.757 0 0 0 -6.718 0l-5.745 5.746a4.756 4.756 0 0 0 0 6.717 4.754 4.754 0 0 0 6.717 0l5.746-5.745a4.757 4.757 0 0 0 0-6.718zm-2.475 4.243-5.746 5.746a1.25 1.25 0 0 1 -1.768-1.768l5.746-5.746a1.25 1.25 0 0 1 1.768 1.768z"/></g></svg>