<svg height="512" viewBox="0 0 34 61" width="512" xmlns="http://www.w3.org/2000/svg"><g id="Page-1" fill="none" fill-rule="evenodd"><g id="014---Phone-Sat-Nav" fill="rgb(0,0,0)" fill-rule="nonzero"><path id="Shape" d="m30 61c2.209139 0 4-1.790861 4-4v-46c0-2.209139-1.790861-4-4-4h-4.53c-1.2589329-3.61757447-4.669627-6.04196011-8.5-6.04196011s-7.24106711 2.42438564-8.5 6.04196011h-4.47c-2.209139 0-4 1.790861-4 4v46c0 2.209139 1.790861 4 4 4zm-16.08-23.6 7.73 2.81c.255675.094761.4615672.2898167.57.54.1113131.2550505.1113131.5449495 0 .8l-2.22 5.07c-.3417455.7619295-.3504529 1.6318212-.0240276 2.4004389.3264253.7686176.958441 1.3663998 1.7440276 1.6495611l9 3.2c-.2290263.0905742-.4737602.1347623-.72.13h-24.38zm18.08 14.82-9.61-3.43c-.2671337-.0946307-.4815701-.2981635-.59-.56-.1084252-.2521726-.1084252-.5378274 0-.79l2.2-5.07c.3339394-.7651514.3339394-1.6348486 0-2.4-.325402-.7621461-.9515722-1.3557409-1.73-1.64l-7.45-2.73 1.83-3.67 15.35 5.76v14.31c.0044857.0732647.0044857.1467353 0 .22zm0-24.66-12.07-4.56 2.23-5.66c1.2294644-.8547515 2.2262344-2.0027556 2.9-3.34h6.94zm-2-18.56c1.1045695 0 2 .8954305 2 2v1h-6.23c.1521477-.6558074.229309-1.3267751.23-2-.0000637-.33423088-.0200994-.66815933-.06-1zm-19.89-.25c.5682777-3.01796006 3.0223055-5.32240136 6.07-5.7.2722489-.03124632.5459717-.04793674.82-.05 3.1037834-.00084051 5.8375061 2.04226616 6.7157917 5.0191919.8782855 2.9769257-.3086134 6.1767375-2.9157917 7.8608081-.1758309.1121642-.3121924.2764973-.39.47l-3.41 8.65-3.41-8.64c-.0778076-.1935027-.2141691-.3578358-.39-.47-2.3795329-1.535776-3.59920808-4.3540546-3.09-7.14zm-8.11 17.69 4.77 1.79-4.77 9.53zm0-12.44h7c.66119513 1.3447445 1.6476981 2.503112 2.87 3.37l1.22 3.08-11.09-4.14zm2-5h4.08c-.10959376 1.0025211-.05214755 2.0162776.17 3h-6.25v-1c0-1.1045695.8954305-2 2-2zm-2 33.24 6.56-13.12c.25100888-.5058976.27643524-1.0943363.07-1.62-.20537255-.5309574-.62728441-.9492321-1.16-1.15l-5.47-2v-5.91l12.05 4.56 1.08 2.76c.2982641.7700841 1.0391726 1.2776601 1.865 1.2776601s1.5667359-.507576 1.865-1.2776601l.33-.84 12.81 4.77v5.87l-14.65-5.5c-.9636447-.3555085-2.0399206.0767308-2.49 1l-11.43 22.85c-.84582843-.2514851-1.4268856-1.0275824-1.43-1.91zm0 14.76v-1.56c.60399287.3635516 1.29504012.5570448 2 .56h26c.7049599-.0029552 1.3960071-.1964484 2-.56v1.56c0 1.1045695-.8954305 2-2 2h-26c-1.1045695 0-2-.8954305-2-2z"/><path id="Shape" d="m17 15c2.7614237 0 5-2.2385763 5-5 0-2.76142375-2.2385763-5-5-5s-5 2.23857625-5 5c0 2.7614237 2.2385763 5 5 5zm0-8c1.6568542 0 3 1.34314575 3 3 0 1.6568542-1.3431458 3-3 3s-3-1.3431458-3-3c0-1.65685425 1.3431458-3 3-3z"/></g></g></svg>