<?xml version="1.0" encoding="iso-8859-1"?>
<!-- Generator: Adobe Illustrator 19.0.0, SVG Export Plug-In . SVG Version: 6.00 Build 0)  -->
<svg version="1.1" id="Capa_1" xmlns="http://www.w3.org/2000/svg" xmlns:xlink="http://www.w3.org/1999/xlink" x="0px" y="0px"
	 viewBox="0 0 485.776 485.776" style="enable-background:new 0 0 485.776 485.776;" xml:space="preserve">
<g>
	<g>
		<g>
			<path d="M402.888,21.776h-112c-4.418,0-8,3.582-8,8v176.72c-20.1,3.435-35.845,19.18-39.28,39.28h-8.72v-96c0-4.418-3.582-8-8-8
				h-112c-4.418,0-8,3.582-8,8v8c-31.4,0-56,17.6-56,40c0,22.4,24.6,40,56,40v8h-56c-4.418,0-8,3.582-8,8v192
				c0.026,22.08,17.92,39.974,40,40h176c22.08-0.026,39.974-17.92,40-40v-184h104c22.08-0.026,39.974-17.92,40-40v-160
				C442.862,39.696,424.968,21.802,402.888,21.776z M122.888,157.776h96v88h-96V157.776z M66.888,197.776c0-13.008,18.32-24,40-24
				v24v24C85.208,221.776,66.888,210.784,66.888,197.776z M282.888,445.776c0,13.255-10.745,24-24,24h-176
				c-13.255,0-24-10.745-24-24v-184h224V445.776z M282.888,245.776h-22.864c2.927-11.195,11.669-19.937,22.864-22.864V245.776z
				 M426.888,221.776c0,13.255-10.745,24-24,24h-104v-208h104c13.255,0,24,10.745,24,24V221.776z"/>
			<circle cx="90.888" cy="197.776" r="16"/>
			<circle cx="146.888" cy="181.776" r="16"/>
			<circle cx="194.888" cy="181.776" r="16"/>
			<circle cx="194.888" cy="221.776" r="16"/>
			<circle cx="146.888" cy="221.776" r="16"/>
			<path d="M133.16,132.072l23.328-17.496c8.548-6.355,20.252-6.355,28.8,0l23.32,17.496l4.712-28.168
				c3.92-23.008-1.525-46.629-15.12-65.6L170.888,0l-27.256,38.16c-13.623,18.96-19.097,42.581-15.2,65.6L133.16,132.072z
				 M156.664,47.456l14.224-19.904l14.28,20.064c11.114,15.517,15.566,34.831,12.368,53.648l-0.368,2.216l-2.28-1.704
				c-14.243-10.603-33.757-10.603-48,0l-2.272,1.704l-0.392-2.336C141.033,82.305,145.513,62.972,156.664,47.456z"/>
		</g>
	</g>
</g>
<g>
</g>
<g>
</g>
<g>
</g>
<g>
</g>
<g>
</g>
<g>
</g>
<g>
</g>
<g>
</g>
<g>
</g>
<g>
</g>
<g>
</g>
<g>
</g>
<g>
</g>
<g>
</g>
<g>
</g>
</svg>
