<?xml version="1.0" encoding="utf-8"?>
<!-- Generator: Adobe Illustrator 23.0.5, SVG Export Plug-In . SVG Version: 6.00 Build 0)  -->
<svg version="1.1" id="Capa_1" xmlns="http://www.w3.org/2000/svg" xmlns:xlink="http://www.w3.org/1999/xlink" x="0px" y="0px"
	 viewBox="0 0 512 512" style="enable-background:new 0 0 512 512;" xml:space="preserve">
<path d="M256,34.1C133.7,34.1,34.1,133.7,34.1,256S133.7,477.9,256,477.9S477.9,378.3,477.9,256S378.3,34.1,256,34.1z M256,460.8
	c-112.9,0-204.8-91.9-204.8-204.8S143.1,51.2,256,51.2S460.8,143.1,460.8,256S368.9,460.8,256,460.8z"/>
<path d="M247.5,109.7l18.9,23.7c1.7,2.1,4.1,3.2,6.7,3.2c0.9,0,1.9-0.2,2.8-0.5c3.4-1.2,5.7-4.4,5.7-8.1V76.8h-17.1v26.9L245.6,80
	c-2.3-2.8-6.1-3.9-9.5-2.7c-3.4,1.2-5.7,4.4-5.7,8.1v51.2h17.1V109.7z"/>
<path d="M384,230.4v51.2c0,4.7,3.8,8.5,8.5,8.5h34.1v-17.1h-25.6v-8.5h25.6v-17.1h-25.6v-8.5h25.6v-17.1h-34.1
	C387.8,221.9,384,225.7,384,230.4L384,230.4z"/>
<path d="M277.1,380.4c-5.1-5-12.1-4.9-18.9-4.9l-2.2,0l-2.2,0c-6.8-0.1-13.8-0.1-18.9,4.9c-3,3-4.5,7.1-4.5,12.2
	c0,14.1,11.5,25.6,25.6,25.6c4.7,0,8.5,3.7,8.5,8.4c-1.6,0.2-4.3,0.2-6.2,0.2l-2.3,0l-2.3,0c-2.5,0-6.2,0.1-7.3-0.4
	c0.2,0.1,0.4,0.2,0.5,0.4h-16.5c0,5.1,1.5,9.2,4.5,12.2c5.1,5,12,4.9,18.9,4.9l2.2,0l2.2,0c0.7,0,1.4,0,2.1,0
	c6.1,0,12.2-0.4,16.8-4.9c3-3,4.5-7.1,4.5-12.2c0-14.1-11.5-25.6-25.6-25.6c-4.7,0-8.5-3.7-8.5-8.4c1.6-0.2,4.3-0.2,6.2-0.2l2.3,0
	l2.3,0c2.5,0,6.2,0,7.3,0.4c-0.2-0.1-0.4-0.2-0.5-0.4h16.5C281.6,387.5,280.1,383.4,277.1,380.4L277.1,380.4z"/>
<path d="M349.9,264.5v-17.1h-43.2l75.7-106c2.4-3.4,2-8-0.9-11c-2.9-2.9-7.6-3.3-11-0.9l-7.2,5.2c-2.1-1.9-4.1-3.9-6.3-5.7
	l-10.6,13.3c1,0.8,1.8,1.7,2.8,2.5l-84.5,60.4v-43.2h-17.1v52.1c-16.7,3.4-29.9,16.6-33.3,33.3h-52.1v17.1h43.2l-61.7,86.3
	c-1.4-1.6-2.9-3-4.2-4.7l-13.4,10.6c2.3,2.9,4.9,5.5,7.4,8.3l-3.9,5.4c-2.4,3.4-2,8,0.9,11c1.6,1.7,3.8,2.5,6,2.5
	c1.7,0,3.5-0.5,5-1.6l106-75.7v43.2h17.1v-52.1c16.7-3.4,29.9-16.6,33.3-33.3H349.9z M293.7,236.4c-4-7.7-10.3-14-18-18l63.1-45.1
	L293.7,236.4z M218.3,275.6c4,7.7,10.3,14,18,18l-63.1,45.1L218.3,275.6z M256,281.6c-14.1,0-25.6-11.5-25.6-25.6
	c0-14.1,11.5-25.6,25.6-25.6s25.6,11.5,25.6,25.6C281.6,270.1,270.1,281.6,256,281.6z"/>
<path d="M120.1,284.8c1.3,3.2,4.4,5.4,7.9,5.4h0.2c3.6-0.1,6.7-2.4,7.8-5.8l17.1-51.2l-16.2-5.4l-9.7,29.1l-8.4-21
	c-1.3-3.2-4.4-5.4-7.9-5.4c-3.5,0-6.6,2.1-7.9,5.4l-8.4,21l-9.7-29.1l-16.2,5.4l17.1,51.2c1.1,3.4,4.3,5.7,7.8,5.8
	c3.6,0.2,6.8-2,8.2-5.4l9.1-22.9L120.1,284.8z"/>
</svg>
