<?xml version="1.0" encoding="iso-8859-1"?>
<!-- Generator: Adobe Illustrator 19.0.0, SVG Export Plug-In . SVG Version: 6.00 Build 0)  -->
<svg version="1.1" id="Capa_1" xmlns="http://www.w3.org/2000/svg" xmlns:xlink="http://www.w3.org/1999/xlink" x="0px" y="0px"
	 viewBox="0 0 512 512" style="enable-background:new 0 0 512 512;" xml:space="preserve">
<g>
	<g>
		<g>
			<path d="M361.931,0H150.069c-24.717,0-44.138,19.421-44.138,44.138v423.724c0,24.717,19.421,44.138,44.138,44.138h211.862
				c24.717,0,44.138-19.421,44.138-44.138V44.138C406.069,19.421,386.648,0,361.931,0z M305.434,17.655l-9.71,9.71
				c-5.297,5.297-12.359,7.945-19.421,7.945h-41.49c-7.062,0-14.124-2.648-18.538-7.945l-9.71-9.71H305.434z M388.414,467.862
				c0,15.007-11.476,26.483-26.483,26.483H150.069c-11.476,0-21.186-7.062-24.717-17.655h236.579c5.297,0,8.828-3.531,8.828-8.828
				c0-5.297-3.531-8.828-8.828-8.828H123.586V44.138c0-15.007,11.476-26.483,26.483-26.483h31.779l22.069,22.069
				c8.828,8.828,19.421,13.241,31.779,13.241h41.49c11.476,0,22.952-4.414,30.897-13.241l22.069-22.069h31.779
				c15.007,0,26.483,11.476,26.483,26.483V467.862z"/>
			<path d="M285.131,214.51l-70.621,70.621c-3.531,3.531-3.531,8.828,0,12.359c1.766,1.766,4.414,2.648,6.179,2.648
				c1.766,0,4.414-0.883,6.179-2.648l70.621-70.621c3.531-3.531,3.531-8.828,0-12.359
				C293.959,210.979,288.662,210.979,285.131,214.51z"/>
			<path d="M220.69,264.828c2.648,0,4.414-0.883,6.179-2.648l35.31-35.31c3.531-3.531,3.531-8.828,0-12.359
				c-3.531-3.531-8.828-3.531-12.359,0l-35.31,35.31c-3.531,3.531-3.531,8.828,0,12.359
				C216.276,263.945,218.041,264.828,220.69,264.828z"/>
			<path d="M285.131,249.821l-35.31,35.31c-3.531,3.531-3.531,8.828,0,12.359c1.766,1.766,4.414,2.648,6.179,2.648
				s4.414-0.883,6.179-2.648l35.31-35.31c3.531-3.531,3.531-8.828,0-12.359C293.959,246.29,288.662,246.29,285.131,249.821z"/>
		</g>
	</g>
</g>
<g>
</g>
<g>
</g>
<g>
</g>
<g>
</g>
<g>
</g>
<g>
</g>
<g>
</g>
<g>
</g>
<g>
</g>
<g>
</g>
<g>
</g>
<g>
</g>
<g>
</g>
<g>
</g>
<g>
</g>
</svg>
