<svg id="Capa_1" enable-background="new 0 0 512 512" height="512" viewBox="0 0 512 512" width="512" xmlns="http://www.w3.org/2000/svg"><g><path d="m460.854 371.22-52.552-139.036c-14.236-37.676-25.334-41.17-62.108-52.747-2.938-.925-6.076-1.913-9.393-2.974 8.434-11.853 14.497-25.745 14.497-41.203v-39.882c0-52.591-42.756-95.378-95.312-95.378-52.54 0-95.284 42.787-95.284 95.378v39.883c0 15.454 6.061 29.344 14.492 41.196-3.342 1.068-6.479 2.057-9.417 2.982-36.752 11.577-47.844 15.071-62.079 52.744l-52.552 139.037c-1.782 4.714.223 10.019 4.678 12.375l68.23 36.092-5.76 50.045c-.429 3.73 1.268 7.387 4.393 9.468 31.191 20.765 79.573 32.699 132.802 32.775.165.008.329.025.496.025.166 0 .328-.017.492-.025 53.243-.071 101.638-12.006 132.835-32.775 3.125-2.081 4.822-5.737 4.393-9.468l-5.76-50.045 68.23-36.092c4.456-2.357 6.461-7.661 4.679-12.375zm-280.152-275.842c0-41.563 33.772-75.378 75.284-75.378 41.527 0 75.313 33.814 75.313 75.378v39.883c0 22.624-20.626 42.508-32.922 52.347-12.285 9.83-24.212 16.319-32.391 19.834v-24.506c15.601-8.998 43.35-29.543 43.35-47.674v-39.884c0-29.428-23.933-53.369-53.35-53.369-29.402 0-53.322 23.941-53.322 53.369v39.883c0 18.112 27.732 38.665 43.322 47.67v24.504c-8.179-3.518-20.098-10.008-32.374-19.834-12.291-9.838-32.91-29.721-32.91-52.34zm75.288 70.265c-5.929-3.387-13.607-8.607-20.446-14.581-10.324-9.02-12.798-14.481-12.88-15.801v-39.883c0-18.4 14.948-33.369 33.322-33.369 18.389 0 33.35 14.969 33.35 33.369v39.858c-.082 1.344-2.557 6.807-12.883 15.824-6.845 5.978-14.53 11.198-20.463 14.583zm129.499 232.718-14.464-125.548c-.631-5.486-5.585-9.42-11.079-8.79-5.486.632-9.422 5.592-8.79 11.079l21.958 190.651c-25.959 15.292-64.955 24.767-107.129 26.066v-137.501c0-5.523-4.477-10-10-10s-10 4.477-10 10v137.5c-42.164-1.303-81.148-10.777-107.101-26.065l21.958-190.651c.632-5.486-3.303-10.447-8.79-11.079-5.485-.635-10.447 3.303-11.079 8.79l-14.464 125.548-53.536-28.321 49.434-130.787c10.801-28.586 14.452-29.736 49.379-40.738 3.105-.979 6.424-2.024 9.988-3.165 2.461-.791 4.985-1.622 7.596-2.498 3.766 3.677 7.603 7.022 11.313 10.011v45.157c0 5.523 4.477 10 10 10s10-4.477 10-10v-31.242c9.082 5.44 18.018 9.678 25.304 11.969v35.771c0 5.523 4.477 10 10 10s10-4.477 10-10v-35.768c7.294-2.29 16.241-6.532 25.332-11.976v31.247c0 5.523 4.477 10 10 10s10-4.477 10-10v-45.159c3.709-2.988 7.544-6.331 11.309-10.007 2.64.885 5.16 1.717 7.582 2.5 3.554 1.137 6.874 2.182 9.979 3.16 34.95 11.003 38.603 12.153 49.405 40.74l49.434 130.786z"/><path d="m216.481 384.987c-4.696-2.905-10.86-1.453-13.765 3.244l-33.667 54.424c-2.905 4.697-1.453 10.86 3.244 13.765 1.639 1.014 3.456 1.497 5.251 1.497 3.35 0 6.622-1.683 8.514-4.741l33.667-54.424c2.905-4.696 1.453-10.859-3.244-13.765z"/><path d="m310.362 388.234c-2.903-4.698-9.066-6.152-13.764-3.249-4.698 2.904-6.153 9.066-3.249 13.764l33.638 54.424c1.891 3.061 5.165 4.744 8.516 4.744 1.794 0 3.61-.483 5.248-1.495 4.698-2.904 6.153-9.066 3.249-13.764z"/><path d="m255.986 299.418c-5.523 0-10 4.477-10 10v.057c0 5.523 4.477 9.972 10 9.972s10-4.505 10-10.028-4.477-10.001-10-10.001z"/></g></svg>