<?xml version="1.0" encoding="iso-8859-1"?>
<!-- Generator: Adobe Illustrator 19.0.0, SVG Export Plug-In . SVG Version: 6.00 Build 0)  -->
<svg version="1.1" id="Capa_1" xmlns="http://www.w3.org/2000/svg" xmlns:xlink="http://www.w3.org/1999/xlink" x="0px" y="0px"
	 viewBox="0 0 512 512" style="enable-background:new 0 0 512 512;" xml:space="preserve">
<g>
	<g>
		<path d="M401.943,391.987c-5.517,0-9.995,4.478-9.995,9.995s4.478,9.995,9.995,9.995c5.517,0,9.995-4.478,9.995-9.995
			S407.461,391.987,401.943,391.987z"/>
	</g>
</g>
<g>
	<g>
		<path d="M110.088,391.987c-5.517,0-9.995,4.478-9.995,9.995s4.478,9.995,9.995,9.995s9.995-4.478,9.995-9.995
			S115.605,391.987,110.088,391.987z"/>
	</g>
</g>
<g>
	<g>
		<path d="M390.261,428.629c-4.577-3.089-10.789-1.88-13.875,2.696c-9.235,13.69-18.541,20.633-27.656,20.633
			c-5.52,0-9.995,4.476-9.995,9.995c0,5.519,4.475,9.995,9.995,9.995c16.168,0,31.049-9.906,44.228-29.442
			C396.044,437.928,394.838,431.717,390.261,428.629z"/>
	</g>
</g>
<g>
	<g>
		<path d="M487.716,55.994c-20.483-32.01-52.673-49.226-69.787-52.452c-44.557-8.401-79.875-0.709-104.977,22.866
			c-50.122,47.066-46.102,144.066-34.942,211.654c2.416,14.631,3.896,28.124,1.502,67.966c-1.457,24.264-4.339,52.274-8.593,83.454
			c-0.859,4.832-10.099,61.058,17.606,95.868c13.154,16.525,32.162,25.44,56.498,26.498
			c72.565,3.159,107.513-85.213,122.625-155.788c6.159-28.748,11.857-52.08,17.418-71.328
			C493.79,254.608,539.441,136.834,487.716,55.994z M448.103,351.874c-5.586,26.082-15.906,63.396-33.353,93.035
			c-19.034,32.334-42.208,48.112-68.85,46.968c-0.001,0-0.003,0-0.004,0c-18.534-0.806-32.171-6.998-41.691-18.93
			c-22.689-28.439-13.673-79.58-13.581-80.081c0.029-0.155,0.054-0.311,0.075-0.466c4.844-35.465,7.946-66.979,9.232-93.719
			c11.691-39.023,35.624-73.327,48.935-90.388c21.096-27.042,38.191-40.487,43.274-42.13c3.936,0.977,16.831,10.001,33.137,32.578
			c17.369,24.05,31.414,53.612,39.721,83.481C459.58,301.323,454.044,324.149,448.103,351.874z M475.104,249.442
			c-9.005-23.1-20.926-45.139-34.779-63.989c-8.694-11.83-30.81-39.344-48.378-39.344c-17.811,0-48.023,36.254-56.859,47.367
			c-9.261,11.648-23.172,30.75-35.461,54.095c-1.023-10.905-2.046-9.928-4.989-32.174c23.193-35.611,57.885-75.73,81.24-85.691
			c3.683-1.571,6.073-5.188,6.073-9.193V96.134c0-5.511,4.484-9.995,9.995-9.995c5.511,0,9.995,4.484,9.995,9.995v24.378
			c0,4.005,2.39,7.622,6.074,9.193c29.299,12.497,57.767,53.474,75.322,88.899C481.062,228.518,478.313,238.835,475.104,249.442z
			 M421.934,114.215V96.133c0-16.534-13.451-29.985-29.985-29.985c-16.534,0-29.985,13.451-29.985,29.985v18.163
			c-22.379,12.323-48.804,40.91-70.338,70.321c-2.979-46.879,0.583-111.31,35.01-143.637c23.279-21.858,55.905-23.738,87.409-17.828
			c2.046,0.487,34.506,8.721,56.834,43.616c19.264,30.107,25.38,70.636,18.286,120.732
			C474.477,162.627,450.766,129.431,421.934,114.215z"/>
	</g>
</g>
<g>
	<g>
		<path d="M241.081,389.48c-4.264-31.173-7.15-59.181-8.606-83.447c-0.842-14.036-2.201-49.413,0.617-62.97
			c10.193-48.542,20.858-165.147-34.078-216.685C170.926,0.028,130.984-4.254,93.798,3.596c-1.707,0.37-42.111,9.545-69.482,52.248
			C-1.283,95.785-6.698,150.573,8.205,218.689c0.077,0.621,0.214,1.231,0.405,1.826c15.057,67.545,17.882,43.874,33.773,125.948
			C56.236,417.95,90.178,511.93,163.27,511.93c23.778,0,45.473-8.084,60.191-26.574C251.177,450.539,241.935,394.289,241.081,389.48
			z M49.114,55.735c21.239-25.534,47.23-32.193,48.839-32.584c37.826-7.095,67.226-1.103,87.383,17.805
			c18.119,16.999,29.524,44.604,33.898,82.05c2.482,21.245,2.322,42.729,1.157,61.268c-21.253-28.762-47.986-57.632-70.324-69.972
			V96.133c0-16.534-13.451-29.985-29.985-29.985S90.096,79.6,90.096,96.133v18.081c-28.825,15.203-52.521,48.368-67.209,73.246
			C15.053,131.176,23.953,85.986,49.114,55.735z M36.916,249.452c-3.202-10.597-5.951-20.896-8.23-30.829
			c17.511-35.384,45.993-76.413,75.326-88.917c3.685-1.57,6.076-5.189,6.076-9.194V96.133c0-5.511,4.484-9.995,9.995-9.995
			s9.995,4.484,9.995,9.995v24.378c0,4.005,2.391,7.623,6.074,9.193c23.244,9.913,58.644,50.682,81.26,85.254
			c-1.917,14.571-3.858,23.879-3.865,23.909c-0.137,0.625-0.671,3.286-1.173,8.614c-12.292-23.328-26.202-42.413-35.463-54.05
			c-8.834-11.101-39.04-47.323-56.828-47.323c-17.514,0-39.569,27.378-48.239,39.149C57.931,204.145,45.955,226.267,36.916,249.452z
			 M207.783,472.951c-10.948,13.719-27.125,18.985-44.414,18.985c-65.304-0.008-92.6-104.057-101.363-149.277
			c-3.615-18.68-8.509-42.267-14.665-61.559c8.365-29.561,22.335-58.772,39.542-82.544c16.247-22.446,29.087-31.419,33.007-32.394
			c5.08,1.647,22.164,15.084,43.252,42.094c13.295,17.031,37.199,51.257,48.907,90.216c1.276,26.79,4.387,58.376,9.254,93.93
			c0.02,0.146,0.045,0.304,0.072,0.449C221.47,393.365,230.476,444.512,207.783,472.951z"/>
	</g>
</g>
<g>
	<g>
		<path d="M163.261,451.958c-11.4,0-21.562-11.772-28.08-21.647c-3.041-4.608-9.239-5.878-13.847-2.838
			c-4.607,3.042-5.877,9.24-2.837,13.847c13.411,20.323,28.472,30.628,44.764,30.628c5.52,0,9.995-4.476,9.995-9.995
			C173.256,456.433,168.782,451.958,163.261,451.958z"/>
	</g>
</g>
<g>
</g>
<g>
</g>
<g>
</g>
<g>
</g>
<g>
</g>
<g>
</g>
<g>
</g>
<g>
</g>
<g>
</g>
<g>
</g>
<g>
</g>
<g>
</g>
<g>
</g>
<g>
</g>
<g>
</g>
</svg>
