<svg height="512" viewBox="0 0 64 64" width="512" xmlns="http://www.w3.org/2000/svg"><g id="outline"><path d="m18 51a7.439 7.439 0 0 0 1.122 3.979 5.513 5.513 0 0 1 .878 3.021c0 2.505 1.869 4 5 4h14c3.131 0 5-1.495 5-4a5.513 5.513 0 0 1 .878-3.021 7.616 7.616 0 0 0 0-7.958 5.636 5.636 0 0 1 0-6.042 7.436 7.436 0 0 0 1.122-3.979 5.218 5.218 0 0 0 -1.2-3.6 3.254 3.254 0 0 1 -.8-2.4 5.521 5.521 0 0 1 .878-3.021 7.442 7.442 0 0 0 1.122-3.979 5.21 5.21 0 0 0 -1.2-3.6 3.257 3.257 0 0 1 -.8-2.4c0-2.505-1.869-4-5-4v-9a3 3 0 0 0 -3-3h-8a3 3 0 0 0 -3 3v9c-3.131 0-5 1.495-5 4a3.257 3.257 0 0 1 -.8 2.4 5.21 5.21 0 0 0 -1.2 3.6 7.442 7.442 0 0 0 1.122 3.979 5.521 5.521 0 0 1 .878 3.021 3.254 3.254 0 0 1 -.8 2.4 5.218 5.218 0 0 0 -1.2 3.6 7.436 7.436 0 0 0 1.122 3.979 5.636 5.636 0 0 1 0 6.042 7.439 7.439 0 0 0 -1.122 3.979zm9-46a1 1 0 0 1 1-1h8a1 1 0 0 1 1 1v9h-10zm-6.122 42.979a7.616 7.616 0 0 0 0-7.958 5.516 5.516 0 0 1 -.878-3.021 3.254 3.254 0 0 1 .8-2.4 5.218 5.218 0 0 0 1.2-3.6 7.442 7.442 0 0 0 -1.122-3.979 5.521 5.521 0 0 1 -.878-3.021 3.257 3.257 0 0 1 .8-2.4 5.21 5.21 0 0 0 1.2-3.6c0-.5 0-2 3-2h14c3 0 3 1.5 3 2a5.21 5.21 0 0 0 1.2 3.6 3.257 3.257 0 0 1 .8 2.4 5.521 5.521 0 0 1 -.878 3.021 7.442 7.442 0 0 0 -1.122 3.979 5.218 5.218 0 0 0 1.2 3.6 3.254 3.254 0 0 1 .8 2.4 5.516 5.516 0 0 1 -.878 3.021 7.616 7.616 0 0 0 0 7.958 5.636 5.636 0 0 1 0 6.042 7.439 7.439 0 0 0 -1.122 3.979c0 .495 0 2-3 2h-14c-3 0-3-1.505-3-2a7.439 7.439 0 0 0 -1.122-3.979 5.636 5.636 0 0 1 0-6.042z"/><path d="m32 33a5 5 0 1 0 -5-5 5.006 5.006 0 0 0 5 5zm0-8a3 3 0 1 1 -3 3 3 3 0 0 1 3-3z"/><path d="m39 27h3v2h-3z"/><path d="m22 27h3v2h-3z"/><path d="m36.586 21h2.828v2h-2.828z" transform="matrix(.707 -.707 .707 .707 -4.426 33.314)"/><path d="m25 20.586h2v2.828h-2z" transform="matrix(.707 -.707 .707 .707 -7.941 24.828)"/><path d="m37 32.586h2v2.828h-2z" transform="matrix(.707 -.707 .707 .707 -12.912 36.828)"/><path d="m24.586 33h2.828v2h-2.828z" transform="matrix(.707 -.707 .707 .707 -16.426 28.343)"/><path d="m31 18h2v3h-2z"/><path d="m31 35h2v3h-2z"/><path d="m30.6 44.8a1 1 0 0 0 .4-.8v-3a1 1 0 0 0 -1-1h-4a1 1 0 0 0 -1 1v3h2v-2h2v1.5l-3.6 2.7a1 1 0 0 0 -.4.8v2a1 1 0 0 0 1 1h5v-2h-4v-.5z"/><path d="m33 41v8a1 1 0 0 0 1 1h4a1 1 0 0 0 1-1v-8a1 1 0 0 0 -1-1h-4a1 1 0 0 0 -1 1zm2 1h2v6h-2z"/><path d="m23 52h18v2h-18z"/><path d="m24 56h16v2h-16z"/><path d="m34 6h-5v2h4v4h2v-5a1 1 0 0 0 -1-1z"/></g></svg>