<?xml version="1.0" encoding="iso-8859-1"?>
<!-- Generator: Adobe Illustrator 19.0.0, SVG Export Plug-In . SVG Version: 6.00 Build 0)  -->
<svg version="1.1" id="Capa_1" xmlns="http://www.w3.org/2000/svg" xmlns:xlink="http://www.w3.org/1999/xlink" x="0px" y="0px"
	 viewBox="0 0 511.999 511.999" style="enable-background:new 0 0 511.999 511.999;" xml:space="preserve">
<g>
	<g>
		<path d="M500.555,238.158c-42.7-27.971-72.305-69.817-100.935-110.285C369.816,85.748,338.998,42.188,293,12.66
			c-1.507-0.967-6.037-3.848-6.037-3.848l-8.05,12.664c0.002,0.001,4.487,2.852,5.98,3.81c8.55,5.488,16.568,11.538,24.166,18.017
			c-19.15,7.469-36.733,17.85-53.331,31.498c-16.459-12.928-33.757-23.147-52.458-30.99c12.42-9.574,26.712-18.388,43.66-26.217
			c3.009-1.391,6.279-2.249,9.718-2.553c4.127-0.364,7.178-4.005,6.814-8.133c-0.364-4.128-4.011-7.184-8.134-6.814
			c-5.166,0.456-10.107,1.761-14.691,3.877c-22.582,10.429-40.827,22.637-56.214,35.942c-0.574,0.379-1.098,0.837-1.553,1.368
			c-18.901,16.643-33.456,34.945-46.459,53.606c-0.02,0.029-0.04,0.057-0.059,0.086c-6.254,8.98-12.158,18.04-18.016,27.038
			l-1.043,1.604c-6.037,9.316-12.127,18.705-18.584,27.979c-0.195,0.243-0.372,0.503-0.538,0.774
			c-12.732,18.216-26.943,35.953-45.064,51.765c-0.262,0.199-0.51,0.419-0.746,0.655c-11.23,9.707-23.953,18.677-38.757,26.563
			c-8.11,4.319-13.187,12.084-13.58,20.771c-0.388,8.574,3.88,16.641,11.419,21.578c42.796,28.033,72.487,69.928,101.201,110.443
			c7.102,10.021,14.259,20.117,21.659,30.085c0.027,0.04,0.058,0.076,0.086,0.115c14.722,19.822,30.421,39.131,48.603,56.333
			c0.307,0.343,0.641,0.656,1.002,0.934c13.856,12.985,29.148,24.748,46.553,34.576c6.651,3.756,14.395,5.748,22.164,5.748
			c1.311,0,2.626-0.057,3.933-0.171c5.169-0.454,10.119-1.759,14.713-3.88c22.588-10.432,40.839-22.644,56.228-35.952
			c0.537-0.357,1.021-0.792,1.455-1.281c28.072-24.693,46.551-53.047,64.618-80.803l1.045-1.606
			c6.038-9.317,12.129-18.708,18.587-27.984c0.191-0.239,0.366-0.495,0.53-0.762c12.732-18.215,26.942-35.953,45.062-51.765
			c0.28-0.212,0.546-0.446,0.797-0.7c11.22-9.692,23.93-18.65,38.714-26.525c8.11-4.319,13.186-12.085,13.579-20.771
			C512.362,251.162,508.093,243.096,500.555,238.158z M449.001,214.56c-18.92,7.258-36.18,17.295-52.342,30.427
			c-13.449-14.806-25.492-30.593-36.59-45.883c16.379-13.289,33.453-22.667,51.9-28.495
			C423.435,185.875,435.551,200.774,449.001,214.56z M277.317,235.482c4.384,6.187,8.89,12.543,13.425,18.829
			c-6.64,9.169-13.169,18.567-19.513,27.697c-5.248,7.554-10.626,15.294-16.054,22.886c-6.979-9.445-13.83-19.111-20.506-28.53
			c-4.381-6.183-8.883-12.534-13.416-18.818c6.637-9.164,13.164-18.559,19.504-27.686c5.25-7.557,10.63-15.302,16.062-22.897
			C263.795,216.404,270.645,226.068,277.317,235.482z M266.067,194.287c14.307-19.156,26.774-33.518,39.338-45.282
			c9.209,12.109,18.139,24.7,26.814,36.941c2.553,3.602,5.118,7.193,7.68,10.788c-12.868,11.871-25.514,26.15-39.774,44.919
			c-3.561-4.969-7.102-9.959-10.565-14.845C281.952,216.075,274.107,205.042,266.067,194.287z M228.434,221.299
			c-5.39,7.758-10.916,15.708-16.505,23.513c-10.64-14.293-22.993-29.9-37.212-44.693c6.299-8.854,12.445-17.858,18.412-26.623
			c5.074-7.451,10.28-15.095,15.541-22.574c12.56,11.85,25.068,25.925,38.69,43.516
			C240.935,203.328,234.592,212.435,228.434,221.299z M202.659,257.505c-14.344,19.181-26.83,33.567-39.38,45.339
			c-11.076-15.223-23.098-30.947-36.596-45.832c12.848-11.943,25.268-26.113,39.069-44.561
			C179.884,227.402,192.159,243.24,202.659,257.505z M211.87,270.207c3.559,4.966,7.097,9.952,10.557,14.834
			c7.609,10.736,15.457,21.774,23.5,32.532c-14.31,19.159-26.777,33.52-39.339,45.283c-9.207-12.108-18.136-24.697-26.811-36.938
			c-2.554-3.603-5.119-7.195-7.682-10.791C184.958,303.261,197.604,288.982,211.87,270.207z M255.384,329.96
			c13.628,17.336,26.289,31.343,39.108,43.267c-10.044,13.632-22.878,29.709-38.48,44.145
			c-13.325-11.611-26.294-25.382-40.159-42.639C228.649,362.887,241.216,348.654,255.384,329.96z M264.635,317.42
			c6.42-8.886,12.761-17.988,18.917-26.849c5.393-7.761,10.922-15.714,16.514-23.525c10.639,14.293,22.991,29.899,37.212,44.693
			c-6.289,8.842-12.428,17.835-18.387,26.588c-5.083,7.464-10.297,15.119-15.566,22.61
			C290.763,349.086,278.254,335.012,264.635,317.42z M309.335,254.354c14.34-19.177,26.823-33.562,39.38-45.339
			c11.077,15.224,23.102,30.95,36.596,45.832c-12.85,11.946-25.27,26.114-39.068,44.56
			C332.11,284.457,319.836,268.619,309.335,254.354z M387.37,136.541c5.029,7.106,10.089,14.256,15.245,21.373
			c-18.172,6.368-35.097,15.913-51.327,28.973c-2.28-3.201-4.554-6.409-6.826-9.616c-8.942-12.618-18.149-25.608-27.724-38.16
			c16.472-13.346,33.583-22.739,52.007-28.574C375.076,119.168,381.246,127.886,387.37,136.541z M321.564,54.693
			c13.727,13.322,26.073,28,37.711,43.19c-18.289,6.441-35.361,16.148-51.784,29.426c-13.741-17.065-26.707-30.906-40.021-42.698
			C284.203,71.243,302.002,61.398,321.564,54.693z M255.982,94.488c13.324,11.611,26.295,25.382,40.158,42.639
			c-12.798,11.847-25.366,26.083-39.531,44.773c-13.63-17.341-26.29-31.345-39.108-43.267
			C227.546,125.004,240.375,108.93,255.982,94.488z M190.202,54.754c19.423,7.321,37.213,17.247,54.066,30.158
			c-15.397,14.501-28.06,30.254-38.079,43.782c-16.389-13.615-33.551-24.442-52.083-32.833
			C164.624,81.371,176.142,67.521,190.202,54.754z M129.875,131.79l1.035-1.591c4.791-7.358,9.538-14.645,14.414-21.814
			c18.587,8.117,35.721,18.802,52.064,32.493c-5.664,8.018-11.239,16.206-16.664,24.177c-5.467,8.031-11.078,16.273-16.797,24.364
			c-15.435-14.536-31.391-26.333-48.42-35.802C120.503,146.25,125.247,138.932,129.875,131.79z M106.869,166.001
			c16.955,9.266,32.813,21.012,48.182,35.692c-13.818,18.627-26.08,32.713-38.699,44.428
			c-14.862-14.983-30.088-27.288-46.189-37.317C84.434,195.243,96.309,180.658,106.869,166.001z M51.054,285.681
			c-9.688-8.866-20.081-17.121-31.391-24.529c-3.104-2.035-4.8-5.078-4.651-8.351c0.153-3.386,2.211-6.376,5.645-8.206
			c14.222-7.575,26.675-16.149,37.777-25.365c16.254,9.654,31.579,21.737,46.556,36.732
			C88.475,269.216,70.731,278.989,51.054,285.681z M63.022,297.291c18.911-7.26,36.162-17.293,52.314-30.417
			c13.452,14.81,25.494,30.595,36.59,45.881c-16.353,13.269-33.399,22.638-51.814,28.468
			C88.627,325.964,76.49,311.072,63.022,297.291z M124.884,375.468c-5.082-7.169-10.194-14.38-15.405-21.557
			c18.133-6.368,35.027-15.902,51.227-28.939c2.281,3.203,4.555,6.412,6.829,9.621c8.942,12.616,18.149,25.607,27.722,38.158
			c-16.424,13.31-33.495,22.688-51.877,28.531C137.188,392.828,131.068,384.194,124.884,375.468z M152.831,413.935
			c18.253-6.444,35.29-16.136,51.672-29.385c13.741,17.065,26.706,30.905,40.021,42.697c-16.725,13.361-34.514,23.204-54.065,29.908
			C176.829,443.912,164.58,429.317,152.831,413.935z M265.067,494.264c-3.019,1.394-6.293,2.253-9.734,2.555
			c-6.065,0.532-12.249-0.78-17.408-3.693c-12.781-7.217-24.316-15.489-34.97-24.575c19.143-7.469,36.72-17.847,53.312-31.491
			c16.459,12.928,33.757,23.146,52.459,30.99C296.306,477.622,282.014,486.437,265.067,494.264z M321.794,457.105
			c-19.423-7.322-37.214-17.247-54.066-30.158c15.392-14.495,28.057-30.25,38.079-43.782c16.387,13.614,33.549,24.441,52.083,32.833
			C347.371,430.487,335.853,444.339,321.794,457.105z M382.121,380.07l-1.037,1.594c-4.79,7.357-9.537,14.643-14.412,21.811
			c-18.589-8.119-35.723-18.803-52.065-32.493c5.673-8.028,11.256-16.23,16.689-24.21c5.46-8.02,11.064-16.25,16.774-24.33
			c15.432,14.533,31.389,26.331,48.42,35.801C391.493,365.61,386.748,372.927,382.121,380.07z M405.126,345.859
			c-16.959-9.269-32.817-21.015-48.183-35.693c13.815-18.625,26.078-32.71,38.699-44.428c14.862,14.982,30.087,27.287,46.19,37.318
			C427.56,316.618,415.686,331.203,405.126,345.859z M491.34,267.265c-14.222,7.576-26.676,16.15-37.777,25.366
			c-16.256-9.655-31.581-21.738-46.556-36.732c16.523-13.258,34.271-23.033,53.952-29.725c9.681,8.871,20.068,17.129,31.376,24.535
			c3.104,2.034,4.799,5.077,4.651,8.349C496.83,262.444,494.774,265.435,491.34,267.265z"/>
	</g>
</g>
<g>
</g>
<g>
</g>
<g>
</g>
<g>
</g>
<g>
</g>
<g>
</g>
<g>
</g>
<g>
</g>
<g>
</g>
<g>
</g>
<g>
</g>
<g>
</g>
<g>
</g>
<g>
</g>
<g>
</g>
</svg>
