<?xml version="1.0" standalone="no"?>
<svg
	xmlns="http://www.w3.org/2000/svg"
	xmlns:xlink="http://www.w3.org/1999/xlink"
	style="isolation:isolate"
	viewBox="0 0 300 300">
	<g
		fill="none"
		stroke-width="5"
		stroke="currentColor"
		stroke-linejoin="miter"
		stroke-linecap="square"
		stroke-miterlimit="2">
		<rect
			x="2.5"
			y="2.5"
			width="295"
			height="295"
			class="cdm-logo-box" />
		<g class="cdm-logo-peaks">
			<g class="cdm-logo-peaks-front">
				<g class="cdm-logo-peaks-front-left">
					<path
						d="M 34.702 295.975 L 113.246 229.34 L 143.915 290.868 L 146.476 295.975"
						class="cdm-logo-peaks-front-left-out" />
					<line
						x1="92.099"
						y1="296"
						x2="113.246"
						y2="233.44"
						class="cdm-logo-peaks-front-left-in" />
				</g>
				<g class="cdm-logo-peaks-front-right">
					<path
						d="M 143.915 288.799 L 199.845 229.34 L 247.172 295.975"
						class="cdm-logo-peaks-front-right-out" />
					<line
						x1="178.699"
						y1="295.975"
						x2="199.845"
						y2="231.39"
						class="cdm-logo-peaks-front-right-in" />
				</g>
			</g>
			<g class="cdm-logo-peaks-back">
				<g class="cdm-logo-peaks-back-left">
					<path
						d="M 5.5 295.975 L 83.037 153.478 L 99.148 194.484"
						class="cdm-logo-peaks-back-left-out" />
					<line
						x1="85.051"
						y1="249.843"
						x2="83.037"
						y2="161.679"
						class="cdm-logo-peaks-back-left-in" />
				</g>
				<g class="cdm-logo-peaks-back-middle-left">
					<path
						d="M 89.078 247.792 L 113.246 134 L 152.517 134 L 192.796 235.491"
						class="cdm-logo-peaks-back-middle-left-out" />
					<line
						x1="182.726"
						y1="245.742"
						x2="114.253"
						y2="135.025"
						class="cdm-logo-peaks-back-middle-left-in" />
				</g>
				<path
					d="M 185.747 183.208 L 270.5 297 L 210.922 147.327 L 183.733 180.132 L 177.692 193.459"
					class="cdm-logo-peaks-back-middle-right" />
				<path
					d="M 243.145 223.189 L 260.263 206.786 L 294.5 295.975"
					fill="none"
					class="cdm-logo-peaks-back-right" />
			</g>
		</g>
		<path
			fill-rule="evenodd"
			fill="currentColor"
			stroke="none"
			class="cdm-logo-name"
			d="M 233.35 50.225 L 233.35 29.975 L 237.825 29.975 L 237.825 47.2 L 242.475 47.2 L 242.475 50.225 L 233.35 50.225 Z  M 257.2 50.225 L 261.025 29.975 L 266.125 29.975 L 269.9 50.225 L 265.775 50.225 L 265.1 45.95 L 262.125 45.95 L 261.425 50.225 L 257.2 50.225 Z  M 262.525 43.275 L 264.675 43.275 L 263.6 35.375 L 262.525 43.275 Z  M 159.875 50.225 L 159.875 29.975 L 165 29.975 L 165 29.975 Q 167.625 29.975 169.1 30.625 L 169.1 30.625 L 169.1 30.625 Q 170.575 31.275 171.188 32.662 L 171.188 32.662 L 171.188 32.662 Q 171.8 34.05 171.8 36.375 L 171.8 36.375 L 171.8 43.725 L 171.8 43.725 Q 171.8 46.075 171.188 47.475 L 171.188 47.475 L 171.188 47.475 Q 170.575 48.875 169.113 49.55 L 169.113 49.55 L 169.113 49.55 Q 167.65 50.225 165.05 50.225 L 165.05 50.225 L 159.875 50.225 Z  M 164.35 47.125 L 165.05 47.125 L 165.05 47.125 Q 166.025 47.125 166.488 46.838 L 166.488 46.838 L 166.488 46.838 Q 166.95 46.55 167.075 46.013 L 167.075 46.013 L 167.075 46.013 Q 167.2 45.475 167.2 44.425 L 167.2 44.425 L 167.2 35.6 L 167.2 35.6 Q 167.2 34.625 167.063 34.112 L 167.063 34.112 L 167.063 34.112 Q 166.925 33.6 166.462 33.35 L 166.462 33.35 L 166.462 33.35 Q 166 33.1 165.025 33.1 L 165.025 33.1 L 164.35 33.1 L 164.35 47.125 Z  M 188.275 50.225 L 188.275 29.975 L 197.375 29.975 L 197.375 33.025 L 192.75 33.025 L 192.75 38.05 L 196.275 38.05 L 196.275 41.15 L 192.75 41.15 L 192.75 47.2 L 197.425 47.2 L 197.425 50.225 L 188.275 50.225 Z  M 36.05 50.525 L 36.05 50.525 Q 32.75 50.525 31.362 48.787 L 31.362 48.787 L 31.362 48.787 Q 29.975 47.05 29.975 43.775 L 29.975 43.775 L 29.975 36.475 L 29.975 36.475 Q 29.975 33.125 31.35 31.413 L 31.35 31.413 L 31.35 31.413 Q 32.725 29.7 36.05 29.7 L 36.05 29.7 L 36.05 29.7 Q 39.225 29.7 40.55 31.225 L 40.55 31.225 L 40.55 31.225 Q 41.875 32.75 41.875 35.55 L 41.875 35.55 L 41.875 37.3 L 37.5 37.3 L 37.5 35.275 L 37.5 35.275 Q 37.5 34.1 37.25 33.475 L 37.25 33.475 L 37.25 33.475 Q 37 32.85 36.05 32.85 L 36.05 32.85 L 36.05 32.85 Q 35.1 32.85 34.8 33.513 L 34.8 33.513 L 34.8 33.513 Q 34.5 34.175 34.5 35.35 L 34.5 35.35 L 34.5 44.875 L 34.5 44.875 Q 34.5 46.075 34.813 46.713 L 34.813 46.713 L 34.813 46.713 Q 35.125 47.35 36.05 47.35 L 36.05 47.35 L 36.05 47.35 Q 36.975 47.35 37.237 46.713 L 37.237 46.713 L 37.237 46.713 Q 37.5 46.075 37.5 44.875 L 37.5 44.875 L 37.5 42.75 L 41.875 42.75 L 41.875 44.5 L 41.875 44.5 Q 41.875 47.35 40.55 48.938 L 40.55 48.938 L 40.55 48.938 Q 39.225 50.525 36.05 50.525 L 36.05 50.525 Z  M 57.1 50.225 L 60.925 29.975 L 66.025 29.975 L 69.8 50.225 L 65.675 50.225 L 65 45.95 L 62.025 45.95 L 61.325 50.225 L 57.1 50.225 Z  M 62.425 43.275 L 64.575 43.275 L 63.5 35.375 L 62.425 43.275 Z  M 90.975 50.525 L 90.975 50.525 Q 88.075 50.525 86.662 48.987 L 86.662 48.987 L 86.662 48.987 Q 85.25 47.45 85.15 44.1 L 85.15 44.1 L 88.975 43.525 L 88.975 43.525 Q 89 45.45 89.438 46.287 L 89.438 46.287 L 89.438 46.287 Q 89.875 47.125 90.75 47.125 L 90.75 47.125 L 90.75 47.125 Q 91.875 47.125 91.875 45.65 L 91.875 45.65 L 91.875 45.65 Q 91.875 44.475 91.338 43.625 L 91.338 43.625 L 91.338 43.625 Q 90.8 42.775 89.65 41.8 L 89.65 41.8 L 87.9 40.275 L 87.9 40.275 Q 86.6 39.175 85.887 37.938 L 85.887 37.938 L 85.887 37.938 Q 85.175 36.7 85.175 35 L 85.175 35 L 85.175 35 Q 85.175 32.45 86.688 31.075 L 86.688 31.075 L 86.688 31.075 Q 88.2 29.7 90.85 29.7 L 90.85 29.7 L 90.85 29.7 Q 93.725 29.7 94.762 31.375 L 94.762 31.375 L 94.762 31.375 Q 95.8 33.05 95.875 35.45 L 95.875 35.45 L 92.025 35.925 L 92.025 35.925 Q 91.975 34.35 91.738 33.662 L 91.738 33.662 L 91.738 33.662 Q 91.5 32.975 90.7 32.975 L 90.7 32.975 L 90.7 32.975 Q 90.125 32.975 89.813 33.463 L 89.813 33.463 L 89.813 33.463 Q 89.5 33.95 89.5 34.55 L 89.5 34.55 L 89.5 34.55 Q 89.5 35.575 89.963 36.275 L 89.963 36.275 L 89.963 36.275 Q 90.425 36.975 91.45 37.875 L 91.45 37.875 L 93.125 39.35 L 93.125 39.35 Q 94.625 40.625 95.45 42.05 L 95.45 42.05 L 95.45 42.05 Q 96.275 43.475 96.275 45.425 L 96.275 45.425 L 96.275 45.425 Q 96.275 46.85 95.613 48.013 L 95.613 48.013 L 95.613 48.013 Q 94.95 49.175 93.75 49.85 L 93.75 49.85 L 93.75 49.85 Q 92.55 50.525 90.975 50.525 L 90.975 50.525 Z  M 111.225 50.225 L 115.05 29.975 L 120.15 29.975 L 123.925 50.225 L 119.8 50.225 L 119.125 45.95 L 116.15 45.95 L 115.45 50.225 L 111.225 50.225 Z  M 116.55 43.275 L 118.7 43.275 L 117.625 35.375 L 116.55 43.275 Z  M 29.975 85.125 L 30.325 64.875 L 35.125 64.875 L 37.35 76.65 L 39.75 64.875 L 44.375 64.875 L 44.725 85.125 L 41.55 85.125 L 41.175 71.65 L 38.825 85.125 L 36 85.125 L 33.5 71.55 L 33.2 85.125 L 29.975 85.125 Z  M 72.15 85.425 L 72.15 85.425 Q 69.875 85.425 68.55 84.688 L 68.55 84.688 L 68.55 84.688 Q 67.225 83.95 66.688 82.512 L 66.688 82.512 L 66.688 82.512 Q 66.15 81.075 66.15 78.85 L 66.15 78.85 L 66.15 64.875 L 70.575 64.875 L 70.575 79.525 L 70.575 79.525 Q 70.575 80.75 70.887 81.475 L 70.887 81.475 L 70.887 81.475 Q 71.2 82.2 72.15 82.2 L 72.15 82.2 L 72.15 82.2 Q 73.1 82.2 73.4 81.475 L 73.4 81.475 L 73.4 81.475 Q 73.7 80.75 73.7 79.525 L 73.7 79.525 L 73.7 64.875 L 78.15 64.875 L 78.15 78.85 L 78.15 78.85 Q 78.15 81.075 77.6 82.512 L 77.6 82.512 L 77.6 82.512 Q 77.05 83.95 75.738 84.688 L 75.738 84.688 L 75.738 84.688 Q 74.425 85.425 72.15 85.425 L 72.15 85.425 Z  M 99.65 85.125 L 99.65 64.875 L 102.8 64.875 L 106.95 74.625 L 106.95 64.875 L 110.65 64.875 L 110.65 85.125 L 107.625 85.125 L 103.475 74.625 L 103.475 85.125 L 99.65 85.125 Z  M 134.15 85.125 L 134.15 68.2 L 131.1 68.2 L 131.1 64.875 L 141.675 64.875 L 141.675 68.2 L 138.65 68.2 L 138.65 85.125 L 134.15 85.125 Z  M 161.125 85.125 L 164.95 64.875 L 170.05 64.875 L 173.825 85.125 L 169.7 85.125 L 169.025 80.85 L 166.05 80.85 L 165.35 85.125 L 161.125 85.125 Z  M 166.45 78.175 L 168.6 78.175 L 167.525 70.275 L 166.45 78.175 Z  M 194.525 85.125 L 194.525 64.875 L 197.675 64.875 L 201.825 74.625 L 201.825 64.875 L 205.525 64.875 L 205.525 85.125 L 202.5 85.125 L 198.35 74.625 L 198.35 85.125 L 194.525 85.125 Z  M 229.75 85.125 L 229.75 76.85 L 225.9 64.875 L 230.125 64.875 L 232.05 71.275 L 233.775 64.875 L 237.825 64.875 L 234.05 76.85 L 234.05 85.125 L 229.75 85.125 Z  M 257.2 85.125 L 261.025 64.875 L 266.125 64.875 L 269.9 85.125 L 265.775 85.125 L 265.1 80.85 L 262.125 80.85 L 261.425 85.125 L 257.2 85.125 Z  M 262.525 78.175 L 264.675 78.175 L 263.6 70.275 L 262.525 78.175 Z "/>
	</g>
</svg>
