<svg xmlns="http://www.w3.org/2000/svg" xmlns:xlink="http://www.w3.org/1999/xlink" viewBox="0 0 88 211">
	<defs>
		<radialGradient
			id="gradient"
			gradientUnits="userSpaceOnUse"
			cx="50%"
			cy="27%"
			r="30%">
			<stop offset="50%" stop-color="var(--in-color)" />
			<stop offset="100%" stop-color="var(--out-color)" />
		</radialGradient>
	</defs>
	<g>
		<path
			fill="url('#gradient')"
			d="M45.265 121.959C44.961 125.539 47.391 144.488 48.645 151.918 49.242 155.438 50.879 161.173 50.29 164.218 49.449 168.462 49.206 173.954 49.669 177.152 49.961 179.094 50.88 188.051 49.565 191.327 48.877 193.045 47.616 201.849 47.616 201.849 44.331 210.143 46.185 209.735 46.185 209.735 47.202 210.983 48.944 209.833 48.944 209.833 50.271 210.679 51.19 209.632 51.19 209.632 52.329 210.575 53.657 209.516 53.657 209.516 55.088 210.259 56.415 208.889 56.415 208.889 57.237 209.303 57.438 208.78 57.438 208.78 59.904 208.622 56.062 200.73 56.062 200.73 55.142 193.642 56.975 189.697 56.975 189.697 62.979 171.892 63.284 167.167 60.884 160.457 60.208 158.52 60.037 157.753 60.348 156.912 61.067 154.971 60.543 147.164 61.42 144.064 63.112 138.085 64.781 122.922 65.651 115.847 66.82 106.317 61.51 93.539 61.51 93.539 60.347 88.339 62.052 69.812 62.052 69.812 64.433 73.517 64.342 80.057 64.342 80.057 63.964 86.916 69.883 97.399 69.883 97.399 72.727 101.731 73.804 105.841 73.804 106.146 73.804 107.394 73.531 110.415 73.531 110.415L73.64 113.046C73.689 113.716 74.066 116.023 74.005 117.138 73.561 124 74.651 122.709 74.651 122.709 75.571 122.709 76.582 117.187 76.582 117.187 76.582 118.611 76.234 122.874 77.002 124.482 77.921 126.4 78.597 124.153 78.609 123.702 78.852 114.965 79.377 117.254 79.377 117.254 79.888 124.342 80.516 125.943 81.642 125.389 82.495 124.982 81.715 116.883 81.715 116.883 83.176 121.694 84.284 122.46 84.284 122.46 86.695 124.153 85.204 119.477 84.869 118.551 83.085 113.631 83.03 111.926 83.03 111.926 85.259 116.347 86.939 116.183 86.939 116.183 89.113 115.489 85.039 109.229 82.652 106.23 81.434 104.702 79.863 102.656 79.407 101.441 78.664 99.383 78.103 92.767 78.103 92.767 77.878 84.96 75.948 81.569 75.948 81.569 72.648 76.287 72.027 66.434 72.027 66.434L71.881 49.799C70.724 38.452 62.363 38.37 62.363 38.37 53.912 37.112 52.736 34.382 52.736 34.382 50.946 31.806 51.969 26.868 51.969 26.868 53.454 25.66 54.027 22.453 54.027 22.453 56.493 20.562 56.372 17.795 55.233 17.825 54.319 17.849 54.526 17.092 54.526 17.092 56.068 4.636 45.01 4 45.01 4H43.322C43.322 4 32.259 4.636 33.799 17.089 33.799 17.089 34.006 17.847 33.084 17.822 31.948 17.792 31.842 20.559 34.299 22.45 34.299 22.45 34.871 25.656 36.357 26.865 36.357 26.865 37.38 31.803 35.59 34.379 35.59 34.379 34.418 37.109 25.963 38.367 25.963 38.367 17.588 38.449 16.449 49.796L16.291 66.431C16.291 66.431 15.682 76.284 12.369 81.566 12.369 81.566 10.448 84.958 10.226 92.764 10.226 92.764 9.663 99.38 8.923 101.438 8.472 102.647 6.902 104.693 5.674 106.227 3.266 109.22-.781 115.467 1.384 116.18 1.384 116.18 3.073 116.344 5.293 111.923 5.293 111.923 5.247 113.616 3.466 118.548 3.116 119.462 1.627 124.138 4.039 122.457 4.039 122.457 5.156 121.69 6.608 116.88 6.608 116.88 5.829 124.979 6.696 125.386 7.829 125.941 8.447 124.339 8.958 117.251 8.958 117.251 9.482 114.962 9.725 123.699 9.737 124.15 10.398 126.397 11.321 124.479 12.1 122.871 11.75 118.615 11.75 117.184 11.75 117.184 12.749 122.706 13.683 122.706 13.683 122.706 14.782 123.997 14.331 117.135 14.258 116.014 14.651 113.713 14.7 113.043L14.806 110.412C14.806 110.412 14.532 107.398 14.532 106.143 14.532 105.832 15.61 101.728 18.453 97.396 18.453 97.396 24.366 86.908 23.985 80.054 23.985 80.054 23.903 73.514 26.284 69.809 26.284 69.809 27.974 88.335 26.829 93.536 26.829 93.536 21.51 106.314 22.683 115.844 23.547 122.938 25.213 138.081 26.909 144.061 27.795 147.155 27.271 154.96 27.981 156.909 28.301 157.756 28.133 158.536 27.445 160.454 25.058 167.164 25.362 171.89 31.366 189.694 31.366 189.694 33.214 193.639 32.28 200.727 32.28 200.727 28.444 208.619 30.901 208.777 30.901 208.777 31.093 209.3 31.924 208.886 31.924 208.886 33.251 210.256 34.685 209.513 34.685 209.513 36.013 210.573 37.148 209.629 37.148 209.629 38.058 210.676 39.385 209.83 39.385 209.83 41.127 211.005 42.162 209.732 42.162 209.732 44.001 210.14 40.727 201.846 40.727 201.846 39.473 193.053 38.782 191.324 37.464 188.049 38.395 179.073 38.676 177.149 39.129 173.933 38.886 168.454 38.058 164.215 37.452 161.177 39.093 155.441 39.699 151.915 40.944 144.492 43.384 125.542 43.079 121.956L44.087 122.31C44.809 122.312 45.265 121.959 45.265 121.959Z"/>
	</g>
</svg>
