<?xml version="1.0" encoding="utf-8"?>
<svg version="1.1" xmlns="http://www.w3.org/2000/svg" xmlns:xlink="http://www.w3.org/1999/xlink"
	 viewBox="0 0 340.1 491.4" xml:space="preserve">
<path fill="currentColor" d="M296.5,235.2c-11.8-18.5-5.5-31.2-17.7-44.5c-4.5-11.3-9.9-53.5-29.2-67.5c1.1-5.2-11.3-26.2-23-35.3
	c-11.8-9.2-36.9-15.2-43.7-16.1c-6.8-0.9-17.6-7-22.3-6.1c-4.7,0.8-14,12.6-16.9,6.9c-1.6-9.5-10-51.4-51.4-49.1s-43,30.7-46,38.4
	c-3.1,7.7-3.1,28.4-0.8,30.7c2.3,2.3,2.8,15.4,2.3,19.2c-5,21.4-14.5,28.8-15.3,33.8c-0.8,4.9,0,22.3,0,22.3s0.6,20.6,1.2,26.1
	s7.9,39.2,12.6,42.2c-5.6,0.8-5.4,3.2-12.2,12.3c-6.8,9.1-5.4,20.8-3.9,29.3c1.5,8.4,11.8,18.6,16.2,23.7
	c4.3,5.1,75.4,86.9,78.3,89.8c2.9,2.9,4.3,2.6,8.4,1.5c5.5,1.3,9.3,14.9,8.5,17.7c-0.8,2.8-5.2,14.4-21.5,14.6s-19.6,9.6-17.7,14.6
	c2,5,11.7,4.3,26.5,4.2c14.8-0.1,24.3-0.2,31.9-5.7c7.5-5.5,26.7-16,34.5-17.7c7.9-1.6,20.4-8.3,21.5-12.3c1-4-16.8-35.4-18.9-37.1
	c-2.1-1.8-4.7-1.2-8-1.2c-14-24-36.3-38.6-43.7-50.7c24.5,8.5,30.5,11.5,35.6,11.5c11.4-0.1,12.4,2.4,15.1,10.6
	c2.8,8.2-4.3,26.8,1.8,36.2c6.1,9.4,15.4,16,18.4,23.8s3.1,22.3,3.1,22.3s-0.1,8.2-1.5,19.2c-3.5,16,3,19.7,12.3,22.3
	c9.3,2.6,17.6,2.7,23,1.9c5.4-0.8,16.7-6.2,7.7-31.1c-3.2-11-7.6-24.8-7.7-31.5c6.4-10,16.9-20,6.9-35.3c-4.9-7.6,0.1-10.3-2.7-15.3
	c-2.8-5-0.9-15.8-3.7-20.8c0.9-5.3,33-11,37.6-16c4.6-5,15.1-20.3,12.3-33.8c2.6-8.1,3.8-16.1,3.8-16.1S311.2,244.7,296.5,235.2z
	 M55.6,152.4c2.6-3.2,12.9-6.9,17.3-18c1.4,26.6-6.7,27.4-14.5,42.4C57.2,165.3,53,155.6,55.6,152.4z M150.1,245.6
	c-7.3-1.8-30.3-9.8-82.5-9.2c14.9-9.1,24.5-49.1,43.4-76.2c5.1,11.9,14.2,23.6,27.4,35.9c13.2,12.3,15.8,12.3,18.5,23.4
	c1.2,6.7,2.1,9.1,13.2,9.1c-2.9,2.6-6.2,12.3,0.6,18.2C164.4,247,157.4,247.3,150.1,245.6z"/>
</svg>
