<svg xmlns="http://www.w3.org/2000/svg" xmlns:xlink="http://www.w3.org/1999/xlink" viewBox="0, 0, 400, 1075">
	<path
		fill="currentColor"
		d="M348.658 55.469 C 343.976 82.405,335.786 92.210,332.344 75.000 C 331.313 69.844,329.238 65.625,327.734 65.625 C 323.526 65.625,324.476 79.459,330.063 99.556 L 335.127 117.768 306.205 183.103 C 274.862 253.909,263.896 274.959,258.297 275.074 C 256.312 275.114,251.594 282.188,247.813 290.793 C 239.653 309.364,223.982 318.598,211.647 312.104 C 200.353 306.157,200.192 303.279,209.937 281.594 C 221.424 256.032,225.443 221.660,217.928 213.250 C 215.256 210.259,212.590 204.357,212.004 200.134 C 209.409 181.447,170.699 178.475,152.833 195.592 C 148.117 200.111,142.969 203.011,141.394 202.038 C 134.725 197.916,128.156 221.187,131.304 237.783 C 132.972 246.582,133.550 255.057,132.586 256.616 C 131.623 258.175,135.147 266.987,140.417 276.199 C 158.053 307.024,151.965 319.390,112.548 332.796 C 78.125 344.504,77.539 345.124,66.388 381.690 C 51.242 431.351,48.140 450.287,54.401 454.864 C 57.196 456.909,58.829 460.517,58.029 462.884 C 52.764 478.455,47.656 623.355,49.765 697.310 C 50.092 708.781,58.711 718.226,73.438 723.248 C 89.449 728.709,90.933 739.609,86.862 821.875 C 85.127 856.933,85.132 902.442,86.873 937.500 L 89.745 995.313 80.626 1018.665 C 70.102 1045.614,71.585 1054.317,87.289 1057.766 C 122.103 1065.413,130.610 1042.093,132.869 932.813 C 135.285 815.967,142.652 763.143,164.139 708.594 C 173.820 684.019,193.111 744.616,197.007 811.835 C 198.529 838.110,200.657 861.035,201.735 862.778 C 203.668 865.906,209.198 966.485,210.347 1019.413 C 211.048 1051.731,214.832 1057.670,234.719 1057.670 C 256.357 1057.670,261.162 1043.978,250.671 1012.208 C 245.872 997.677,245.452 990.065,247.664 957.813 C 249.079 937.187,250.789 857.767,251.465 781.322 C 252.141 704.877,253.845 641.949,255.253 641.482 C 256.661 641.014,257.373 613.560,256.836 580.472 C 254.938 463.522,264.809 390.984,291.977 322.244 C 296.312 311.275,299.170 301.186,298.329 299.825 C 297.488 298.463,305.849 279.002,316.909 256.578 C 328.219 233.649,338.528 207.903,340.466 197.747 C 348.738 154.410,356.636 123.490,360.593 118.954 C 364.793 114.140,378.220 78.923,378.026 73.229 C 377.971 71.625,375.686 73.125,372.948 76.563 C 368.095 82.655,368.020 82.615,369.997 75.000 C 375.442 54.027,375.938 49.051,372.363 51.261 C 370.376 52.489,368.750 55.437,368.750 57.813 C 368.750 60.188,367.427 62.949,365.810 63.948 C 364.066 65.026,363.597 61.287,364.656 54.758 C 366.668 42.364,363.754 40.129,359.472 50.781 L 356.646 57.813 356.448 50.781 C 356.131 39.515,350.883 42.673,348.658 55.469 M92.417 528.906 C 91.454 546.523,89.804 584.492,88.750 613.281 C 86.742 668.169,85.921 671.252,77.236 656.549 C 70.343 644.880,70.567 629.843,78.125 596.875 C 81.474 582.266,84.266 559.063,84.329 545.313 C 84.464 515.815,87.168 496.875,91.243 496.875 C 92.983 496.875,93.459 509.847,92.417 528.906" />
</svg>
