<svg xmlns="http://www.w3.org/2000/svg" xmlns:xlink="http://www.w3.org/1999/xlink" viewBox="0, 0, 400, 824">
	<path
		fill="currentColor"
		d="M369.098 49.674 C 365.099 67.926,360.009 73.699,357.773 62.520 C 356.945 58.378,355.442 54.480,354.433 53.856 C 350.500 51.426,350.200 60.040,353.750 73.417 C 359.963 96.824,361.083 93.075,324.171 172.455 C 316.097 189.821,300.540 205.988,291.906 205.988 C 290.308 205.988,287.298 207.471,285.219 209.283 C 272.623 220.258,233.192 237.413,227.022 234.602 C 217.718 230.363,216.957 222.703,224.254 206.751 C 245.940 159.339,215.573 114.303,180.687 142.139 C 176.300 145.639,171.521 148.503,170.066 148.503 C 164.544 148.503,160.869 163.483,163.046 177.116 C 164.192 184.290,164.667 190.622,164.103 191.186 C 163.539 191.751,167.179 199.893,172.192 209.280 C 188.271 239.389,178.726 244.378,141.460 225.339 C 128.363 218.648,116.236 213.148,114.512 213.116 C 104.653 212.933,90.478 197.217,81.078 176.048 C 75.813 164.192,66.734 144.183,60.902 131.585 C 49.099 106.086,48.561 101.988,54.304 81.333 C 57.233 70.796,57.596 66.219,55.654 64.277 C 53.713 62.336,52.468 63.679,51.016 69.281 C 47.297 83.635,43.949 79.422,36.882 51.497 C 35.132 44.578,35.027 44.529,34.069 50.177 L 33.075 56.043 28.375 50.177 L 23.676 44.311 25.124 52.695 C 26.418 60.183,26.213 60.631,23.202 56.886 C 17.671 50.009,16.802 52.051,20.305 63.692 C 23.557 74.496,23.534 74.615,18.993 70.506 C 16.451 68.206,14.371 66.861,14.371 67.517 C 14.371 71.017,24.140 96.066,29.153 105.421 C 32.339 111.367,36.363 124.301,38.095 134.163 C 46.465 181.829,62.021 221.063,77.661 233.956 C 100.156 252.497,123.175 286.470,130.190 311.480 C 136.925 335.490,141.413 447.084,136.639 471.836 C 135.497 477.752,135.261 483.680,136.113 485.009 C 136.966 486.338,137.902 508.982,138.195 535.329 C 139.035 611.025,138.813 622.963,136.251 639.521 C 134.927 648.084,134.058 680.419,134.320 711.377 C 134.763 763.683,134.448 768.427,129.867 778.443 C 119.694 800.686,122.590 809.581,140.007 809.581 C 163.033 809.581,164.693 804.394,169.912 716.168 C 171.119 695.749,173.255 669.880,174.658 658.683 C 176.061 647.485,177.217 631.136,177.227 622.351 C 177.244 607.744,186.669 570.632,196.742 545.509 C 200.937 535.049,205.479 537.572,209.678 552.695 C 211.781 560.269,215.045 571.240,216.931 577.073 C 218.816 582.907,220.398 595.302,220.445 604.618 C 220.492 613.935,221.581 632.335,222.864 645.509 C 224.148 658.683,225.839 689.940,226.623 714.970 C 227.406 740.000,229.012 761.503,230.191 762.754 C 231.370 764.006,232.351 772.090,232.371 780.719 C 232.427 805.589,242.325 816.267,259.324 809.795 C 270.277 805.626,271.649 797.373,264.254 780.128 C 257.447 764.252,255.904 724.312,261.173 700.357 C 262.361 694.955,263.900 642.852,264.593 584.573 C 265.286 526.293,266.249 477.899,266.734 477.030 C 267.219 476.160,266.492 457.329,265.118 435.182 C 259.215 339.997,267.115 296.717,296.146 265.189 C 305.841 254.661,313.826 244.309,313.892 242.185 C 313.957 240.061,319.407 234.012,326.001 228.743 C 344.945 213.606,357.173 186.129,367.597 135.275 C 371.102 118.179,376.191 100.419,378.908 95.808 C 388.202 80.033,396.384 52.150,389.058 61.219 C 385.117 66.098,385.197 63.353,389.485 46.707 C 390.544 42.596,389.998 42.766,385.641 47.904 L 380.562 53.892 382.011 45.509 C 383.305 38.020,383.100 37.573,380.088 41.317 C 375.630 46.861,374.150 46.604,373.179 40.120 C 372.695 36.885,371.064 40.704,369.098 49.674 " />
</svg>
